<?xml version="1.0" encoding="UTF-8" standalone="no"?>
<svg
   xmlns:dc="http://purl.org/dc/elements/1.1/"
   xmlns:cc="http://creativecommons.org/ns#"
   xmlns:rdf="http://www.w3.org/1999/02/22-rdf-syntax-ns#"
   xmlns:svg="http://www.w3.org/2000/svg"
   xmlns="http://www.w3.org/2000/svg"
   xmlns:sodipodi="http://sodipodi.sourceforge.net/DTD/sodipodi-0.dtd"
   xmlns:inkscape="http://www.inkscape.org/namespaces/inkscape"
   version="1.0"
   width="736.000000pt"
   height="437.000000pt"
   viewBox="0 0 736.000000 437.000000"
   preserveAspectRatio="xMidYMid meet"
   id="svg3741"
   sodipodi:docname="unicorn.svg"
   inkscape:version="0.92.2 (5c3e80d, 2017-08-06)">
  <defs
     id="defs3745" />
  <sodipodi:namedview
     pagecolor="#ffffff"
     bordercolor="#666666"
     borderopacity="1"
     objecttolerance="10"
     gridtolerance="10"
     guidetolerance="10"
     inkscape:pageopacity="0"
     inkscape:pageshadow="2"
     inkscape:window-width="3840"
     inkscape:window-height="2066"
     id="namedview3743"
     showgrid="false"
     inkscape:zoom="3.1630435"
     inkscape:cx="490.66667"
     inkscape:cy="291.33333"
     inkscape:window-x="-11"
     inkscape:window-y="-11"
     inkscape:window-maximized="1"
     inkscape:current-layer="svg3741" />
  <metadata
     id="metadata3723">
Created by potrace 1.15, written by Peter Selinger 2001-2017
<rdf:RDF>
  <cc:Work
     rdf:about="">
    <dc:format>image/svg+xml</dc:format>
    <dc:type
       rdf:resource="http://purl.org/dc/dcmitype/StillImage" />
  </cc:Work>
</rdf:RDF>
</metadata>
  <g
     transform="translate(0.000000,437.000000) scale(0.100000,-0.100000)"
     fill="#000000"
     stroke="none"
     id="g3739">
    <path
       d="M4 4362 c3 -5 92 -58 198 -117 244 -136 551 -321 736 -442 115 -75 143 -97 137 -111 -14 -37 -34 -153 -45 -258 -12 -111 -4 -563 10 -614 6 -22 13 -12 57 80 28 58 55 117 61 133 18 44 32 32 32 -28 0 -41 4 -57 15 -62 22 -8 55 25 55 56 0 33 10 71 19 71 3 0 6 -75 6 -168 0 -147 3 -176 23 -242 85 -270 257 -394 427 -308 53 28 133 106 180 176 l28 43 -31 62 c-18 34 -32 66 -32 70 0 5 27 45 60 90 34 45 106 157 162 251 88 147 102 166 112 150 7 -12 13 -113 16 -274 5 -238 9 -280 29 -280 10 0 27 128 41 300 18 230 27 277 46 258 14 -15 19 -247 10 -523 -9 -278 -5 -378 14 -359 8 9 16 54 61 384 11 85 24 159 29 163 4 4 9 -27 12 -70 6 -82 31 -159 48 -148 5 3 10 39 11 78 1 89 30 259 45 264 14 5 34 -135 34 -237 1 -154 30 -380 50 -380 12 0 20 42 30 156 9 101 23 148 53 173 22 18 26 1 57 -240 35 -273 76 -384 180 -494 l58 -60 36 -160 c95 -430 131 -740 114 -1011 -11 -190 -23 -235 -103 -391 -69 -136 -88 -198 -64 -214 8 -6 58 -7 116 -3 l102 6 -2 -58 -2 -59 48 -9 c52 -10 235 7 269 25 22 12 23 33 2 97 -16 50 -16 55 14 204 61 303 92 516 162 1108 57 485 76 629 83 637 3 3 39 -1 79 -8 109 -20 417 -17 557 5 158 25 359 75 547 138 l160 54 22 -90 c26 -112 88 -241 177 -371 127 -185 159 -283 158 -475 -1 -213 -45 -345 -254 -760 -117 -234 -202 -440 -188 -455 14 -13 118 -22 168 -14 74 11 156 53 188 95 31 41 43 127 24 173 -12 26 -9 33 40 97 89 118 122 198 244 589 47 151 115 306 158 359 l23 28 -53 157 c-61 179 -60 181 41 131 160 -79 276 -239 340 -470 55 -198 67 -513 27 -734 -24 -137 -74 -293 -126 -396 -20 -39 -33 -75 -30 -80 3 -5 31 -17 62 -26 83 -24 182 -11 310 41 34 14 42 22 49 53 5 20 9 269 9 552 2 536 6 600 50 770 l16 60 -90 122 c-169 231 -222 340 -229 478 -5 99 16 168 72 242 33 43 33 44 40 188 3 80 13 206 21 280 26 233 12 439 -33 499 -40 55 -148 64 -234 20 -24 -12 -85 -50 -137 -85 -88 -60 -167 -94 -215 -94 -28 1 -106 37 -133 62 -30 28 -54 20 -141 -46 -83 -63 -122 -74 -201 -58 -55 12 -121 53 -121 76 0 11 13 11 73 0 82 -17 124 -12 161 17 28 22 37 48 67 199 51 260 100 351 220 408 l59 29 -57 16 c-163 45 -268 60 -418 61 -123 1 -159 -2 -197 -17 -53 -20 -54 -23 -33 -51 8 -11 15 -33 15 -49 0 -28 -9 -39 -70 -86 l-24 -19 32 -7 c81 -17 135 -191 81 -259 -49 -62 -148 -85 -187 -43 -27 29 -38 73 -22 92 19 23 39 18 58 -15 32 -56 91 -49 112 14 22 69 -26 163 -95 186 -49 16 -57 11 -59 -43 -3 -66 -30 -92 -97 -92 -60 0 -89 26 -89 80 0 38 19 58 52 53 18 -2 24 -11 28 -38 4 -29 9 -35 30 -35 21 0 26 5 28 32 7 75 -44 107 -162 101 -123 -7 -165 -34 -255 -164 -59 -86 -125 -119 -186 -94 -17 7 -14 10 25 28 49 21 109 82 178 180 38 55 41 62 23 62 -69 0 -198 -75 -338 -198 -143 -125 -236 -181 -325 -197 -52 -10 -48 -25 8 -25 59 0 148 14 369 56 245 47 392 61 487 45 88 -14 171 -51 216 -94 68 -65 122 -210 122 -327 0 -46 3 -61 13 -58 6 3 35 13 64 22 l52 17 3 82 3 82 44 -60 c24 -33 46 -62 48 -64 2 -3 35 5 74 18 39 12 72 21 75 19 2 -3 -9 -22 -25 -44 -16 -21 -32 -54 -36 -72 -6 -29 -1 -40 35 -88 l41 -55 -28 7 c-15 4 -51 15 -80 25 l-52 18 -43 -64 c-24 -36 -46 -65 -50 -65 -5 0 -8 33 -8 74 0 47 -5 77 -12 83 -10 8 -103 43 -114 43 -1 0 -5 -17 -9 -37 -20 -109 -95 -201 -191 -236 -145 -52 -348 -16 -455 80 -53 48 -69 86 -69 162 0 82 30 157 82 208 51 49 77 63 115 63 38 0 90 -51 99 -97 5 -29 2 -39 -22 -64 -36 -38 -75 -39 -103 -2 -12 14 -24 37 -27 50 -9 36 -31 27 -61 -24 -67 -115 -14 -247 126 -311 105 -48 211 -30 308 53 136 116 117 416 -34 531 -114 87 -330 96 -676 28 -73 -14 -134 -27 -136 -29 -2 -2 7 -20 19 -39 25 -41 71 -59 140 -54 48 3 52 11 35 66 -6 19 -4 22 18 22 24 0 77 -49 77 -72 0 -18 -58 -68 -79 -68 -25 0 -26 -6 -5 -55 19 -46 12 -117 -17 -164 -20 -33 -71 -61 -110 -61 -31 0 -86 37 -93 62 -8 32 20 70 47 66 23 -4 23 -5 12 -51 -7 -25 -5 -27 25 -27 50 0 90 46 90 105 0 55 -21 109 -48 124 -23 12 -32 6 -32 -24 0 -12 -11 -34 -25 -49 -32 -35 -73 -34 -108 2 -30 31 -34 59 -13 88 23 30 51 7 50 -40 -1 -38 10 -45 39 -23 14 10 15 18 7 49 -14 48 -57 84 -120 97 -54 12 -308 13 -454 2 l-88 -6 89 -87 c50 -47 104 -93 122 -102 51 -27 111 -30 151 -8 41 23 46 47 9 48 -40 1 -49 12 -49 54 0 44 26 70 71 70 41 0 58 -10 75 -41 18 -36 9 -99 -19 -136 -44 -55 -168 -82 -227 -48 -45 26 -50 19 -28 -42 16 -47 19 -76 16 -153 -5 -108 -28 -172 -81 -229 -99 -104 -275 -108 -352 -7 -24 31 -27 43 -23 86 5 51 36 108 71 129 29 19 70 -3 97 -51 31 -54 18 -83 -45 -100 -52 -14 -56 -28 -19 -57 72 -57 211 5 269 119 66 129 47 298 -43 383 l-30 29 -11 -53 c-6 -29 -21 -68 -32 -86 -88 -142 -317 -22 -285 150 10 51 41 79 83 75 41 -3 69 -34 79 -84 6 -29 2 -34 -40 -63 -51 -36 -57 -54 -23 -75 56 -37 132 -22 156 30 63 139 -30 276 -276 402 -108 56 -344 155 -351 148 -2 -3 2 -22 9 -43 6 -21 13 -74 13 -117 1 -76 0 -81 -24 -93 -14 -7 -37 -27 -51 -45 -48 -59 -129 -35 -165 48 -16 38 -3 99 25 114 22 11 31 4 31 -26 0 -27 32 -48 60 -39 28 9 35 48 22 132 -23 148 -93 269 -251 435 -146 154 -232 257 -274 330 -32 56 -44 67 -72 72 -43 8 -105 -6 -218 -50 -120 -47 -143 -50 -192 -25 -67 35 -77 28 -50 -36 22 -52 19 -59 -25 -77 -75 -30 -83 -22 -124 111 -8 27 -64 75 -80 70 -7 -3 -10 -35 -7 -99 4 -113 -15 -169 -73 -213 -45 -35 -42 -35 -298 59 -112 41 -295 108 -408 149 -298 109 -571 192 -556 169z m1841 -238 c19 -14 56 -31 83 -38 54 -15 62 -12 125 37 21 16 40 27 42 25 3 -3 -6 -40 -19 -84 -13 -43 -22 -82 -19 -87 2 -4 36 -30 75 -57 l71 -50 -71 0 c-56 0 -72 -3 -72 -14 0 -10 -9 -14 -26 -13 -25 2 -29 -4 -54 -78 l-27 -80 -29 90 -30 90 -91 0 c-50 0 -89 3 -87 7 3 4 34 28 69 54 68 48 74 61 54 111 -20 49 -38 113 -33 113 3 0 21 -12 39 -26z m401 -299 c16 -8 37 -15 47 -15 21 0 21 -1 2 -47 -8 -19 -15 -48 -15 -64 0 -34 -24 -39 -40 -9 -6 10 -26 22 -45 26 -44 8 -51 19 -31 49 9 13 16 33 16 43 0 36 21 41 66 17z m3191 -35 l42 -18 -47 -94 c-26 -51 -63 -129 -83 -173 -47 -101 -103 -166 -169 -194 -90 -39 -88 -24 7 58 119 102 124 178 17 293 -42 45 -64 92 -50 106 4 4 37 17 74 29 76 26 140 24 209 -7z m377 -835 l51 -7 -46 -23 -47 -24 9 -47 c5 -26 8 -49 6 -51 -2 -1 -18 13 -37 32 l-33 34 -38 -20 c-21 -10 -41 -19 -44 -19 -3 0 4 19 16 41 l21 41 -38 39 -38 39 34 -5 c19 -4 42 -8 51 -9 11 -2 24 12 40 43 l23 46 9 -51 9 -52 52 -7z m-138 -367 c10 -68 9 -67 109 -83 35 -6 37 -8 20 -17 -11 -6 -39 -21 -61 -34 l-42 -23 13 -66 c6 -36 9 -65 6 -65 -3 0 -27 21 -52 46 l-47 47 -56 -32 c-31 -17 -58 -31 -61 -31 -3 0 9 28 26 61 l31 62 -49 49 -48 50 50 -7 c28 -4 58 -9 68 -12 13 -3 24 9 45 56 15 33 30 60 33 61 3 0 10 -28 15 -62z"
       id="path3725" />
    <path
       d="M2445 4324 c-33 -8 -64 -19 -69 -24 -13 -13 26 -62 84 -106 47 -36 66 -74 36 -74 -24 0 -89 50 -164 126 -78 79 -109 94 -98 47 25 -103 143 -246 246 -296 114 -55 229 -54 293 3 30 27 30 28 14 53 -9 13 -32 35 -52 47 -20 12 -34 27 -32 34 11 32 106 47 164 25 34 -13 80 -55 99 -91 34 -65 0 -204 -59 -242 -97 -63 -263 -30 -436 88 -30 20 -56 34 -59 31 -9 -9 47 -84 121 -161 274 -289 722 -456 1110 -415 239 26 449 118 604 264 79 74 71 97 -34 97 -76 0 -111 -24 -168 -116 -49 -77 -91 -114 -134 -114 -23 0 -23 1 11 43 19 23 51 70 72 105 21 34 49 76 62 91 l24 29 -65 26 c-68 27 -110 32 -135 16 -12 -7 -12 -16 -1 -59 11 -45 11 -54 -7 -93 -25 -55 -56 -83 -108 -97 -67 -18 -128 9 -160 71 -32 62 -1 122 59 116 28 -3 32 -7 35 -35 3 -25 -2 -35 -22 -49 -30 -19 -32 -27 -10 -48 20 -20 83 -21 112 0 53 37 68 130 32 189 -26 43 -77 76 -180 120 -47 19 -152 71 -235 115 -465 249 -606 301 -809 299 -45 0 -108 -7 -141 -15z m981 -652 c41 3 74 4 74 3 0 -1 -7 -17 -16 -35 -13 -25 -15 -49 -11 -106 l5 -73 -41 15 c-25 9 -66 14 -102 12 -59 -3 -60 -3 -56 22 1 14 4 59 6 100 1 41 3 78 4 82 0 3 15 0 32 -9 23 -11 51 -14 105 -11z"
       id="path3727" />
    <path
       d="M3360 4131 c0 -11 132 -92 220 -136 179 -90 342 -121 496 -94 123 21 125 59 4 85 -106 23 -108 25 -87 70 l18 37 -23 -7 c-13 -4 -77 -10 -143 -13 -129 -6 -272 11 -405 48 -81 22 -80 22 -80 10z"
       id="path3729" />
    <path
       d="M4532 3980 c-120 -73 -169 -89 -396 -128 -55 -9 -101 -22 -103 -28 -2 -7 71 -15 216 -23 265 -16 352 -7 460 44 76 36 144 97 135 120 -10 24 -37 26 -114 6 -41 -11 -78 -18 -82 -15 -14 9 -8 21 17 32 28 13 34 47 9 56 -23 9 -21 10 -142 -64z"
       id="path3731" />
    <path
       d="M4835 3848 c-43 -15 -88 -49 -78 -59 11 -11 126 -29 186 -29 93 0 118 44 47 80 -43 22 -106 25 -155 8z"
       id="path3733" />
    <path
       d="M6335 3804 c-57 -6 -250 -43 -277 -53 -16 -6 -34 -2 -62 12 -83 43 -209 29 -295 -33 -78 -57 -124 -160 -106 -239 6 -31 25 -44 25 -18 0 24 69 95 113 116 48 23 128 28 174 10 15 -5 83 -47 151 -91 112 -73 237 -137 270 -138 22 0 13 42 -18 77 -16 18 -30 43 -30 53 0 83 128 -116 179 -278 54 -171 71 -340 86 -857 13 -458 50 -683 139 -850 29 -55 29 -55 11 55 -43 278 -66 783 -46 1015 13 146 44 352 56 363 20 21 25 -61 25 -458 1 -696 19 -1002 75 -1268 33 -154 59 -229 104 -299 99 -152 230 -215 372 -179 90 24 96 36 19 37 -36 0 -87 6 -115 12 l-50 12 -47 95 c-141 283 -154 575 -53 1118 64 340 85 471 97 612 6 77 15 140 19 140 16 0 33 -154 32 -295 -1 -148 -7 -203 -58 -540 -30 -201 -44 -405 -27 -405 22 0 116 344 151 550 78 466 40 951 -99 1247 -143 305 -366 461 -685 476 -49 3 -108 3 -130 1z m223 -104 c80 -22 188 -73 268 -126 63 -42 144 -112 144 -125 0 -6 -21 -19 -46 -30 -81 -36 -156 -7 -342 129 -124 92 -209 136 -280 148 -42 7 -53 17 -29 28 25 12 214 -4 285 -24z"
       id="path3735" />
    <path
       d="M5764 3550 c-49 -15 -79 -55 -79 -104 0 -54 24 -90 86 -128 48 -30 61 -52 37 -61 -7 -2 -23 0 -35 4 -26 9 -73 -5 -73 -21 0 -16 79 -50 115 -50 74 0 168 76 181 145 23 122 -39 215 -148 221 -29 2 -67 -1 -84 -6z"
       id="path3737" />
  </g>
  <path
     style="fill:#aa8800;stroke-width:0.3161512"
     d="m 436.98419,581.56997 c -1.30412,-0.2416 -3.01134,-0.55421 -3.79381,-0.69474 l -1.42268,-0.25545 0.10398,-7.81298 0.10395,-7.81299 -1.21048,0.009 c -0.66578,0.005 -4.41154,0.21425 -8.32391,0.46547 -8.67911,0.55728 -17.43606,0.58554 -18.95731,0.0612 -4.00311,-1.37981 -1.76397,-9.06361 8.7835,-30.14166 9.37344,-18.7319 11.0393,-24.63204 12.57311,-44.53123 0.68336,-8.86567 0.94374,-30.94428 0.47031,-39.87653 -1.60027,-30.19155 -6.22815,-59.95327 -16.63446,-106.9757 l -3.39337,-15.33333 -3.21896,-3.31959 c -10.04533,-10.35935 -14.12971,-15.91019 -17.89283,-24.31709 -4.80635,-10.73747 -7.64207,-23.21061 -10.89514,-47.92346 -3.48443,-26.47038 -4.4069,-31.1409 -6.1506,-31.1409 -1.18993,0 -3.43918,2.4626 -4.74505,5.19512 -1.96807,4.11815 -2.94055,8.9767 -3.95935,19.78083 -1.03609,10.98771 -1.94863,16.91791 -2.88064,18.72025 -0.84681,1.63753 -1.37801,1.07015 -2.44031,-2.60647 -2.36244,-8.17631 -4.39134,-27.17854 -4.94422,-46.30622 -0.52052,-18.00841 -2.55956,-32.4055 -4.58951,-32.4055 -1.99355,0 -5.4274,18.88699 -6.17908,33.98626 -0.32212,6.47018 -0.41545,7.41444 -0.99395,10.05511 -0.2826,1.28997 -0.43467,1.5045 -1.00845,1.42268 -1.99985,-0.28518 -4.73475,-9.5039 -5.56234,-18.74927 -0.72515,-8.10114 -1.23381,-10.77587 -1.91534,-10.07174 -0.84678,0.8748 -2.05511,8.0934 -5.36394,32.04425 -4.31458,31.23069 -5.55734,38.91713 -6.53567,40.42211 -2.17095,3.33967 -2.77737,-10.85165 -1.82865,-42.79325 0.34297,-11.54666 0.57182,-27.21407 0.57034,-39.04467 -0.003,-27.66181 -0.65513,-36.04124 -2.80294,-36.04124 -2.00032,0 -3.14224,7.1022 -5.21029,32.4055 -2.07876,25.43439 -4.36089,42.55147 -5.66864,42.5175 -2.20714,-0.0573 -2.86639,-6.40671 -3.49543,-33.66527 -0.48761,-21.12955 -0.92253,-31.05857 -1.60971,-36.7486 -0.37108,-3.07265 -0.50295,-3.47907 -1.26046,-3.88447 -1.34153,-0.71797 -3.62813,2.4229 -12.77959,17.55404 -11.2096,18.5341 -17.04379,27.56633 -24.81171,38.41237 -2.3039,3.21684 -4.74913,6.7906 -5.43384,7.94169 l -1.24493,2.09289 0.62705,1.59086 c 0.34488,0.87497 2.25427,4.84291 4.24308,8.81765 l 3.61602,7.2268 -2.73311,4.10663 c -4.42731,6.65227 -9.4168,12.51592 -14.68278,17.25522 -6.1061,5.49538 -10.02854,7.99966 -15.27709,9.75364 -14.65442,4.89728 -29.53472,-2.11911 -40.72942,-19.20481 -5.42402,-8.2783 -10.81773,-21.21036 -12.6184,-30.25411 -0.98713,-4.95781 -1.17597,-8.4555 -1.45941,-27.03093 -0.15787,-10.34605 -0.38346,-19.3445 -0.50131,-19.99656 -0.28993,-1.60416 -0.87378,-1.49112 -1.63292,0.31615 -0.86913,2.06913 -1.03675,2.89939 -1.33324,6.6037 -0.21066,2.63196 -0.42139,3.52215 -1.15116,4.86299 -1.53143,2.81372 -4.50153,4.6597 -6.1112,3.79823 -1.2526,-0.67037 -1.64669,-2.30549 -1.9041,-7.90041 -0.4519,-9.82233 -1.79789,-10.11453 -5.69849,-1.23709 -4.31412,9.81855 -11.43455,24.42276 -12.67879,26.00455 -0.84833,1.07848 -1.11809,1.04283 -1.5189,-0.2007 -1.76269,-5.46874 -2.91637,-62.53523 -1.60212,-79.24788 0.76175,-9.68678 3.08506,-24.73907 5.06771,-32.832601 0.94035,-3.83872 1.17856,-5.293936 0.93964,-5.740364 C 141.99955,86.478081 130.20192,78.39638 105.18351,62.788685 80.225378,47.218602 55.272313,32.440695 28.042612,17.103683 10.770869,7.3754484 0.69553265,1.3972226 0.69553265,0.87722572 c 0,-1.23317619 16.09118335,3.15124308 37.14776635,10.12177828 19.34834,6.40504 28.762425,9.762804 80.934711,28.867337 34.45642,12.61731 38.34959,13.93825 42.44561,14.401661 3.25917,0.368734 5.36808,-0.625568 9.56151,-4.508041 3.76139,-3.482469 5.72218,-6.944618 7.01803,-12.391708 0.5717,-2.403128 0.66163,-4.018563 0.77609,-13.941449 0.13249,-11.485801 0.33551,-13.5968623 1.30716,-13.5915348 1.59268,0.00873 7.01581,4.3311578 8.89954,7.0932418 0.4808,0.704989 1.62369,3.558087 2.53975,6.340218 3.40453,10.33969 4.96179,12.589134 8.69211,12.555616 2.96841,-0.02668 10.36728,-3.042782 11.42524,-4.657432 0.79311,-1.210447 0.43428,-3.224443 -1.42716,-8.010157 -1.23094,-3.164727 -1.61821,-4.550152 -1.54655,-5.532646 l 0.0956,-1.310708 1.29182,0.02346 c 0.8883,0.01613 2.56711,0.624561 5.37457,1.947834 4.88485,2.302442 5.92491,2.608837 8.86352,2.611138 3.25323,0.0026 6.94735,-1.044598 17.03366,-4.828412 15.24576,-5.719349 20.8347,-7.2537359 26.5567,-7.290883 3.53266,-0.022934 6.12129,0.5937559 7.42956,1.769944 1.43923,1.293937 3.03869,3.505487 5.54271,7.663829 6.3977,10.624497 15.14265,21.270782 34.14911,41.573882 14.15483,15.120479 20.62837,23.287888 26.31128,33.195877 6.44045,11.228679 10.31709,24.746029 10.33865,36.049669 0.008,4.29553 -0.0429,4.69436 -0.79015,6.16495 -0.60372,1.18811 -1.14156,1.74614 -2.20102,2.28366 -1.7817,0.90394 -2.91873,0.89344 -4.93531,-0.0455 -2.15555,-1.00371 -2.9512,-2.197 -3.34118,-5.01099 -0.48529,-3.50208 -1.14623,-4.26177 -3.21159,-3.6915 -2.6618,0.73496 -4.69133,3.93672 -5.31393,8.38315 -0.62082,4.43376 0.49051,8.1914 3.66211,12.38249 3.76267,4.97217 9.50486,6.98628 14.56787,5.10979 1.62365,-0.60177 2.37521,-1.19816 5.36578,-4.25803 2.0404,-2.08768 4.4269,-4.16698 5.77453,-5.03118 3.46489,-2.22199 3.37659,-1.96828 3.49502,-10.04014 0.11144,-7.59404 -0.43246,-13.94635 -1.54187,-18.00759 -1.00387,-3.67489 -1.38907,-5.59872 -1.16574,-5.82205 0.46657,-0.46659 10.42467,3.32489 23.15627,8.81661 26.05212,11.23745 40.36726,19.49727 50.22745,28.98116 8.34433,8.02589 12.31134,15.84615 12.27394,24.19601 -0.0322,7.18509 -2.69469,13.35369 -6.80026,15.75503 -3.02977,1.77214 -8.05724,2.33023 -11.61969,1.2899 -2.30209,-0.67226 -5.42396,-2.43554 -6.43096,-3.6323 -1.82533,-2.16928 -0.74293,-3.92693 5.07514,-8.24113 2.34088,-1.7358 4.53266,-3.60949 4.8706,-4.16375 0.7371,-1.20885 0.76913,-2.53502 0.12706,-5.25907 -1.05402,-4.47188 -3.69989,-8.0813 -7.02918,-9.58908 -2.12444,-0.96214 -6.27693,-0.9727 -8.33802,-0.0212 -4.43895,2.0492 -6.81701,7.46538 -6.50259,14.81007 0.25396,5.93364 2.3232,10.68017 6.63468,15.21902 4.82934,5.08404 10.63454,7.68662 17.16922,7.69727 10.03765,0.0163 16.21679,-6.79613 19.2624,-21.23668 0.45156,-2.14097 0.90435,-4.22644 1.00625,-4.63439 0.17192,-0.68841 0.37799,-0.5521 2.86752,1.89691 7.34283,7.22335 10.79407,14.845 11.8238,26.11168 0.71036,7.77202 -1.04137,17.32115 -4.52102,24.64519 -4.52169,9.51733 -13.27023,16.94826 -22.63235,19.22373 -1.63251,0.39678 -3.13875,0.51208 -5.51156,0.42188 -2.84508,-0.10814 -3.52951,-0.24955 -5.32013,-1.09914 -2.29981,-1.09121 -4.83129,-3.18475 -5.56382,-4.60129 -0.43638,-0.84388 -0.43505,-1.01137 0.0136,-1.69606 0.64817,-0.9892 1.61898,-1.4697 5.07603,-2.51233 3.645,-1.09932 6.31742,-2.51424 7.38001,-3.90738 0.74099,-0.97151 0.83992,-1.38777 0.83992,-3.53477 0,-2.25625 -0.10351,-2.63818 -1.42028,-5.24111 -1.60137,-3.16542 -4.93041,-6.84408 -7.1158,-7.86311 -1.96055,-0.91418 -4.28161,-0.99608 -5.90855,-0.20849 -2.8306,1.37027 -6.32521,5.71461 -8.14321,10.12324 -1.47974,3.58842 -2.00221,6.19191 -2.0386,10.15803 -0.0321,3.50244 0.003,3.70529 0.96771,5.53265 2.29276,4.34444 6.18663,7.99176 11.01268,10.31535 6.88394,3.31442 16.03905,3.71 24.03239,1.03841 9.88694,-3.30447 17.83232,-10.80897 21.61829,-20.41872 2.3718,-6.02021 3.20002,-11.33765 3.41384,-21.91786 0.19389,-9.59574 -0.0221,-11.35559 -2.2638,-18.43871 -0.78817,-2.49043 -1.43302,-4.94455 -1.43302,-5.45361 0,-1.47932 1.04968,-1.35885 4.77505,0.54805 3.52392,1.80379 6.78056,2.44785 11.03251,2.18188 6.55672,-0.41013 12.78904,-2.54314 17.2321,-5.89769 2.65491,-2.00447 4.19517,-4.40448 5.46054,-8.50841 2.44403,-7.92676 -0.17702,-15.61395 -5.89006,-17.27478 -1.22215,-0.35529 -2.62105,-0.46175 -4.90885,-0.37356 -2.79832,0.10787 -3.40792,0.23752 -4.86073,1.03379 -3.10315,1.70077 -4.27553,4.08091 -4.29516,8.71992 -0.0218,5.11444 1.05537,6.34465 6.04304,6.90267 1.43586,0.16064 2.82177,0.4673 3.07981,0.68147 1.8585,1.54241 -2.11954,5.31511 -7.04429,6.6807 -2.90236,0.8048 -7.42086,0.78336 -10.69365,-0.0507 -5.28321,-1.34645 -8.23546,-3.25623 -16.89746,-10.93077 -4.76839,-4.2248 -16.83063,-15.95599 -16.6214,-16.16522 0.0662,-0.0662 4.08474,-0.39257 8.93007,-0.72524 25.30813,-1.73755 56.01358,-1.50147 63.89074,0.49124 8.04776,2.03586 13.7516,7.48293 14.9433,14.27058 0.49149,2.79929 0.18808,3.55688 -2.00851,5.01533 -3.12743,2.0765 -4.25628,1.1531 -4.29355,-3.51206 -0.0237,-2.9891 -0.72446,-5.25131 -1.9442,-6.27764 -1.92793,-1.62225 -4.26514,-0.65263 -5.78665,2.40064 -1.72394,3.45951 -0.80729,6.98458 2.7318,10.50518 2.70604,2.69189 4.46855,3.51325 7.51043,3.49993 2.89499,-0.0127 4.44613,-0.72771 6.78527,-3.12784 2.04467,-2.09799 3.27118,-4.62092 3.62805,-7.46282 0.40117,-3.19508 0.95364,-3.65371 3.24691,-2.69552 4.36058,1.82196 7.8076,11.35143 6.85381,18.94759 -0.57733,4.59767 -3.48962,8.86457 -7.2184,10.57586 -1.786,0.81967 -5.50969,1.28037 -7.10752,0.87934 -1.02164,-0.25641 -1.05278,-1.05104 -0.18346,-4.67727 1.04693,-4.36701 0.81371,-5.10771 -1.72828,-5.48891 -2.51634,-0.37735 -5.08867,1.41844 -6.34755,4.43136 -0.68905,1.64916 -0.59263,4.45993 0.19686,5.73734 1.87772,3.03819 7.70793,6.66158 11.23317,6.98124 5.70682,0.51747 13.52015,-3.94524 16.16146,-9.23088 1.98828,-3.97875 2.93329,-8.05297 2.93329,-12.64605 0,-3.79735 -0.42738,-5.95402 -1.92461,-9.71215 -1.79564,-4.50709 -1.6038,-5.62118 0.96793,-5.62118 1.80605,0 5.6121,-2.45218 8.41851,-5.42393 1.82476,-1.93226 2.33882,-2.79188 2.33882,-3.91098 0,-2.00897 -3.59758,-6.21619 -7.15678,-8.36956 -1.5266,-0.9236 -2.12886,-1.10653 -3.64329,-1.10653 -2.70094,0 -2.78444,0.1939 -1.76017,4.08825 1.38604,5.26976 1.11686,6.38356 -1.72894,7.1538 -1.72957,0.46813 -9.42706,0.48292 -11.37746,0.0219 -5.71807,-1.35172 -9.03778,-4.04639 -11.84049,-9.61115 -0.77751,-1.54378 -0.966,-2.18185 -0.67565,-2.28729 0.9708,-0.35253 11.2645,-2.48092 19.68794,-4.07083 13.46725,-2.54191 22.58362,-3.87682 34.14433,-4.99975 5.54798,-0.53889 23.6439,-0.5381 27.97938,0.001 10.09341,1.25558 18.12283,3.86155 24.34364,7.90076 2.43319,1.57989 7.78861,7.04451 9.61918,9.81531 10.69862,16.19376 11.58707,40.83345 1.99884,55.43594 -2.34243,3.56742 -3.94895,5.30369 -7.31305,7.90363 -5.25428,4.06078 -10.61601,6.7812 -16.16064,8.19957 -3.60751,0.92283 -10.96163,1.01254 -14.61418,0.17828 -11.78305,-2.6913 -21.97185,-10.29018 -26.36376,-19.66223 -2.15991,-4.60914 -2.93274,-9.87246 -2.15843,-14.69967 0.93202,-5.81045 5.22273,-13.79287 8.25749,-15.3622 0.84419,-0.43656 1.01646,-0.43694 1.67772,-0.004 0.43266,0.28349 0.96088,1.17304 1.27944,2.1546 1.49659,4.61154 4.62301,8.81638 7.46391,10.0385 3.90232,1.67874 8.68417,-0.50006 12.15257,-5.53722 1.16597,-1.69329 1.23878,-1.93521 1.2206,-4.05397 -0.0247,-2.88822 -0.75254,-5.01949 -2.71653,-7.95592 -1.81212,-2.70934 -4.0192,-4.74932 -6.72915,-6.21968 -1.77778,-0.96461 -2.12223,-1.03817 -4.76178,-1.01698 -4.446,0.0357 -7.11653,1.38583 -12.76267,6.4524 -8.69302,7.80075 -12.82272,17.49827 -12.79265,30.04022 0.0228,9.51201 1.71917,13.95546 7.54362,19.75945 8.03464,8.00643 21.14957,13.56312 35.51032,15.04545 5.03825,0.52006 14.10462,0.21232 18.60759,-0.63159 4.53927,-0.85071 9.63177,-2.52203 12.75461,-4.18594 8.80311,-4.69049 16.29403,-13.76509 19.53448,-23.66434 0.36999,-1.13024 1.10448,-3.96623 1.63219,-6.3022 0.52772,-2.33597 1.01479,-4.3025 1.08235,-4.37007 0.20104,-0.20103 6.55018,2.00533 10.80583,3.75509 2.4294,0.99888 4.12533,1.88714 4.38558,2.297 0.77233,1.21628 1.12262,4.06236 1.42471,11.5755 0.1643,4.08626 0.39354,7.75655 0.50941,8.15621 0.51062,1.76131 2.11338,-0.046 8.67528,-9.78257 l 4.39865,-6.5267 6.72678,2.27717 c 6.2339,2.11032 14.39863,4.47536 14.6335,4.23882 0.0556,-0.056 -1.81281,-2.66258 -4.15192,-5.79248 -2.33911,-3.1299 -4.69352,-6.57916 -5.23202,-7.66503 -0.88253,-1.77966 -0.96385,-2.18725 -0.82455,-4.13405 0.19762,-2.7622 1.99747,-6.66467 5.41997,-11.75182 2.34382,-3.48383 3.02835,-4.86844 2.61248,-5.28433 -0.29538,-0.29535 -3.1721,0.41773 -10.47292,2.596 -3.65154,1.08948 -7.20825,2.0706 -7.90378,2.18027 l -1.2646,0.1994 -2.41388,-3.24548 c -1.32761,-1.78501 -4.07664,-5.49953 -6.10896,-8.25449 -2.03231,-2.75496 -3.76805,-4.93607 -3.8572,-4.84691 -0.0892,0.0892 -0.33926,4.93926 -0.5558,10.778 -0.2165,5.83875 -0.45329,10.666 -0.52617,10.72723 -0.0729,0.0612 -3.61594,1.27636 -7.87349,2.70029 -7.06079,2.36147 -7.77501,2.54247 -8.12793,2.05981 -0.51033,-0.69791 -0.66714,-2.15279 -0.86568,-8.0314 -0.35647,-10.55495 -2.75128,-20.16429 -7.44565,-29.87629 -5.24735,-10.85596 -11.03829,-16.42004 -21.77476,-20.92168 -10.37301,-4.34925 -20.57233,-5.93464 -33.50602,-5.20818 -13.38663,0.75191 -23.91617,2.26603 -51.10941,7.34943 -17.33802,3.2411 -30.67119,5.48118 -36.57987,6.14571 -5.3242,0.5988 -13.56664,0.55412 -14.19692,-0.077 -0.89506,-0.89621 0.65449,-1.5925 6.19947,-2.78571 3.60776,-0.77635 7.35254,-2.15319 11.54265,-4.24386 8.47124,-4.22676 16.23272,-9.83766 30.63808,-22.14878 12.5446,-10.72085 20.97133,-16.674657 30.21789,-21.350097 5.06013,-2.558605 8.59315,-3.809037 12.20565,-4.319909 3.98702,-0.56384 4.0052,-0.07607 0.20806,5.581931 -4.92494,7.338442 -10.0728,13.719685 -14.99084,18.582515 -4.05689,4.01135 -6.11927,5.53679 -10.57261,7.82012 -3.80029,1.94848 -4.72525,2.65166 -4.19093,3.186 0.81947,0.81948 4.14677,1.64097 6.59153,1.62743 6.4119,-0.0355 12.73799,-4.16936 18.52201,-12.10329 7.80745,-10.709501 10.32749,-13.723428 13.84106,-16.553635 6.03018,-4.857354 12.58513,-6.639476 24.38607,-6.629957 8.38506,0.0068 12.06661,0.947806 15.27387,3.904148 2.22567,2.051566 2.89715,3.914983 2.88361,8.002432 -0.009,2.919952 -0.10227,3.519502 -0.65933,4.268042 -0.5434,0.73022 -0.92101,0.88665 -2.338,0.96858 -3.28358,0.18986 -3.57023,-0.10062 -4.45713,-4.516641 -0.69993,-3.485052 -1.26359,-4.309818 -3.29487,-4.821085 -3.04409,-0.766195 -5.45579,0.268409 -6.76004,2.900011 -1.54149,3.110295 -0.81358,8.876715 1.45515,11.527195 2.27481,2.65762 7.23569,3.93654 12.58911,3.24548 3.57422,-0.46139 5.54356,-1.35146 7.2914,-3.29547 1.79691,-1.9986 2.56797,-4.46502 2.95301,-9.446082 0.45937,-5.942309 1.22015,-6.748077 5.37855,-5.696501 3.70577,0.937107 6.17832,2.324401 8.75448,4.91195 2.60657,2.618113 4.48644,5.649233 5.70786,9.203393 0.74874,2.17874 0.87005,3.03302 0.87536,6.16495 0.005,3.03585 -0.11081,3.9302 -0.70309,5.42036 -1.47646,3.71473 -3.86093,5.93341 -6.66655,6.203 -3.03683,0.2918 -5.48703,-1.32044 -8.15452,-5.36566 -2.32387,-3.52409 -4.44613,-4.29118 -6.61171,-2.38978 -2.10689,1.8499 -2.50205,3.98661 -1.39792,7.55926 0.72816,2.35606 1.98318,4.44093 3.64468,6.05455 4.72912,4.59287 15.59906,2.80611 22.51633,-3.70115 4.21258,-3.96293 5.32759,-7.0024 5.05519,-13.78058 -0.32175,-8.00684 -3.4372,-15.670284 -8.17927,-20.119723 -2.18894,-2.053841 -3.57561,-2.757167 -6.80355,-3.450819 l -2.57894,-0.554188 3.37432,-2.682422 c 5.89982,-4.690056 7.22943,-5.969738 8.14326,-7.837585 0.76193,-1.557332 0.83423,-1.987389 0.67897,-4.040039 -0.197,-2.604786 -0.65298,-3.864364 -2.5203,-6.961687 l -1.31165,-2.175677 0.97106,-0.867639 c 1.16195,-1.038212 6.59596,-3.212128 9.90097,-3.960957 3.15601,-0.715074 25.09827,-1.023597 33.98626,-0.477872 11.31502,0.694745 22.3173,2.38328 33.14912,5.087435 6.66996,1.665153 16.96084,4.522328 16.96084,4.709034 0,0.114577 -2.31185,1.33787 -5.13745,2.71843 -2.8256,1.380559 -6.41787,3.358562 -7.98282,4.395564 -8.85552,5.868032 -14.54688,15.509069 -19.11956,32.388135 -1.44184,5.32228 -2.57199,10.33293 -4.78536,21.21658 -2.72658,13.4073 -4.11496,18.3638 -5.958,21.26997 -1.13087,1.78316 -4.12836,4.0599 -6.52646,4.95715 -4.11525,1.53971 -7.80733,1.54226 -16.56595,0.0114 -9.22621,-1.61255 -10.43394,-1.62057 -10.43182,-0.0693 0.003,2.16829 2.94381,4.80558 8.37684,7.5122 4.56665,2.27501 8.58796,3.31943 13.63159,3.5404 2.95162,0.12932 4.39074,0.0433 6.27,-0.3748 3.22949,-0.71849 7.84191,-3.063 12.171,-6.18655 1.92192,-1.38673 5.06468,-3.65433 6.98391,-5.03911 4.44828,-3.20958 7.72857,-4.85844 9.72645,-4.88903 1.60927,-0.0246 2.95586,0.65557 5.8985,2.97953 3.00701,2.37479 10.95546,6.10768 14.87083,6.98391 5.66986,1.26886 16.28723,-3.16571 31.93226,-13.33721 16.26436,-10.57414 19.38193,-12.18514 25.98383,-13.42712 4.24465,-0.79852 10.49258,-0.51416 13.85122,0.6304 6.92377,2.3595 9.64621,5.9853 11.64979,15.51545 1.44472,6.87185 1.84547,11.53999 2.0178,23.50331 0.17907,12.43136 -0.0881,18.27465 -1.4915,32.61353 -1.49726,15.29843 -2.24996,25.37221 -2.84653,38.09622 -0.78194,16.67772 -1.14074,18.52071 -4.49302,23.07903 -6.05648,8.2354 -8.70946,14.14135 -9.94118,22.13059 -0.62902,4.08007 -0.42561,14.70475 0.36619,19.12715 1.32054,7.37537 3.06835,12.51315 6.93706,20.39176 5.32661,10.84769 11.79557,20.68745 28.46448,43.2965 l 6.28142,8.51989 -1.01712,3.81001 c -4.30045,16.10878 -5.81507,25.14869 -6.67712,39.85127 -0.52696,8.98776 -0.91364,35.06243 -1.10415,74.4536 -0.18777,38.82362 -0.5919,61.90137 -1.14596,65.43809 -0.66777,4.26263 -1.7651,5.53909 -6.5239,7.58883 -6.72757,2.89771 -16.10683,5.57564 -22.82893,6.51802 -5.18141,0.72642 -12.29848,0.45956 -16.6164,-0.62304 -5.23041,-1.31133 -9.95877,-3.28522 -9.95877,-4.15729 0,-1.01867 1.47953,-4.70379 4.17092,-10.38882 3.44137,-7.26914 5.68295,-12.76951 8.18516,-20.08477 8.58306,-25.09258 12.16771,-48.97391 11.55978,-77.01267 -0.71912,-33.16815 -5.68396,-57.41875 -15.99795,-78.14126 -4.89108,-9.82699 -10.01067,-17.07472 -17.07226,-24.16887 -6.73304,-6.76412 -11.95753,-10.46277 -20.91884,-14.80941 -5.33353,-2.587 -7.1318,-3.15133 -8.31869,-2.61055 -0.72215,0.32905 -0.81036,0.55174 -0.80619,2.03604 0.008,2.66427 0.63404,4.81401 6.66855,22.87933 l 5.71301,17.1028 -2.26788,2.81472 c -4.46633,5.5433 -8.921,14.20269 -14.54881,28.28131 -2.93385,7.33929 -5.00717,13.39558 -10.39843,30.37448 -14.09535,44.39085 -17.91917,53.1784 -30.52,70.13827 -3.77425,5.07985 -4.91916,7.07863 -4.91916,8.58777 0,0.55782 0.38729,2.09194 0.8606,3.40913 0.78797,2.19282 0.86031,2.78171 0.85696,6.9791 -0.008,10.03969 -2.85469,15.79772 -10.24131,20.71517 -4.7539,3.1648 -10.69511,5.66809 -16.47594,6.94202 -6.4638,1.42445 -22.29922,0.57011 -24.38275,-1.31544 -0.76081,-0.68855 -0.6077,-1.78537 0.91887,-6.5823 3.51939,-11.05891 11.13857,-28.11818 26.33422,-58.9622 16.76452,-34.02846 22.47788,-47.21978 26.57055,-61.34734 3.44153,-11.87992 4.72497,-21.72259 4.72643,-36.24712 0.003,-18.33547 -2.238,-29.03362 -8.82359,-42.14437 -2.8771,-5.72781 -5.45064,-10.00126 -11.69883,-19.42636 -14.55547,-21.95622 -20.2591,-34.34238 -25.15726,-54.63208 -0.99698,-4.12972 -1.92324,-7.50859 -2.05836,-7.50859 -0.13513,0 -5.2765,1.71534 -11.42527,3.81186 -27.70467,9.44635 -48.52971,15.17775 -71.58744,19.70208 -18.09071,3.54971 -31.07912,4.4936 -57.9527,4.21154 -16.71744,-0.17546 -20.05729,-0.37157 -28.22797,-1.65748 -2.72405,-0.42871 -6.01629,-0.86937 -7.31612,-0.97925 -2.11223,-0.17854 -2.3963,-0.13637 -2.67372,0.39698 -0.91045,1.75044 -2.90037,16.60884 -8.29391,61.93009 -8.05683,67.70053 -10.37823,86.17536 -13.77142,109.60099 -2.97672,20.55015 -5.32086,34.16457 -10.08832,58.59145 -1.629,8.34639 -3.13432,16.36418 -3.3452,17.8173 -0.56338,3.88218 -0.25036,7.8249 0.90714,11.42669 2.77207,8.62577 2.76673,11.26788 -0.0262,12.96637 -4.11152,2.50038 -28.85177,4.72732 -36.59068,3.29363 z m 325.9812,-305.93354 c 0.15156,-2.04281 -0.52541,-7.12715 -1.7364,-13.04124 -0.42728,-2.0866 -0.68032,-3.88647 -0.56237,-3.99972 0.11796,-0.11324 3.34438,-1.94237 7.16981,-4.06472 3.82543,-2.12236 7.16872,-4.06217 7.42955,-4.31069 0.70793,-0.67454 0.13013,-0.91212 -4.09179,-1.68248 -7.90602,-1.44258 -8.77028,-1.64752 -10.43659,-2.47473 -2.27442,-1.12911 -2.73819,-2.10618 -3.67156,-7.73528 -0.88329,-5.32715 -1.67051,-8.70377 -2.08951,-8.96273 -0.48102,-0.29728 -1.01276,0.59571 -4.35397,7.31178 -1.8437,3.70602 -3.54959,6.71309 -4.11629,7.25601 l -0.9677,0.92714 -2.28752,-0.3995 c -4.30974,-0.75267 -14.59148,-2.23004 -14.70814,-2.11339 -0.0641,0.0641 2.79443,3.08127 6.3523,6.70478 l 6.46886,6.5882 -2.54229,5.05842 c -3.14798,6.26363 -5.02871,10.53975 -4.90651,11.15577 0.10199,0.51422 4.69936,-1.76634 11.83332,-5.87001 l 3.83659,-2.20691 3.59296,3.6275 c 4.26627,4.30725 8.99264,8.62699 9.4391,8.62699 0.17537,0 0.33203,-0.17784 0.34815,-0.39519 z m 8.8252,-67.65636 c 0,-0.56512 -0.44321,-3.48769 -0.98765,-6.4946 -0.54445,-3.00691 -0.9367,-5.5162 -0.8717,-5.57618 0.065,-0.06 2.7502,-1.42144 5.96704,-3.02544 3.21684,-1.604 5.90808,-2.97153 5.98054,-3.03894 0.33152,-0.30847 -0.5955,-0.49173 -6.71025,-1.32649 -3.59116,-0.49026 -6.59099,-0.95345 -6.66627,-1.0293 -0.0753,-0.0759 -0.66284,-3.12555 -1.3057,-6.77709 -0.64286,-3.65155 -1.20972,-6.68391 -1.25967,-6.73858 -0.05,-0.0547 -1.13423,1.91717 -2.40949,4.38186 -1.29151,2.49611 -2.89117,5.09607 -3.61111,5.86915 -1.53472,1.64804 -1.98938,1.69955 -6.78919,0.76911 -1.75571,-0.34035 -4.07262,-0.713 -5.14868,-0.82811 l -1.95647,-0.20929 1.41826,1.53944 c 0.78004,0.84669 3.02749,3.18439 4.9943,5.19488 l 3.57605,3.65544 -2.38606,4.8723 c -2.03531,4.15606 -2.80517,6.31167 -2.25419,6.31167 0.33285,0 3.5292,-1.46944 7.0718,-3.25108 l 3.88408,-1.95338 2.91317,3.06697 c 3.01024,3.16914 5.73366,5.61515 6.25199,5.61515 0.16332,0 0.29794,-0.46237 0.2992,-1.02749 z m -85.21321,-64.97604 c 7.13442,-2.5398 11.94988,-5.7778 16.50951,-11.10132 4.52308,-5.28083 7.04265,-9.78684 15.75337,-28.1735 1.52398,-3.21684 4.8117,-9.934856 7.30607,-14.928926 4.02599,-8.060594 4.4735,-9.112976 3.98549,-9.372672 -1.68515,-0.896807 -8.53586,-3.598076 -10.98268,-4.330522 -3.80124,-1.137888 -10.84086,-1.430951 -15.17526,-0.631753 -5.79865,1.069176 -16.28956,4.788006 -17.13135,6.072728 -0.70779,1.080219 -0.29854,3.169962 1.18064,6.028352 1.44222,2.787021 2.7441,4.564559 6.28499,8.581229 6.85884,7.780424 9.51328,12.955224 9.50389,18.527714 -0.006,3.83281 -1.24121,7.20637 -4.02224,10.98935 -2.10743,2.86673 -4.30105,5.09081 -10.32031,10.46373 -9.41941,8.40793 -10.17615,10.46865 -2.89212,7.87559 z M 303.41899,92.536954 c 0.27362,-0.417594 0.63001,-2.01811 0.79197,-3.556701 0.33219,-3.155707 0.98382,-5.570097 2.6626,-9.865413 1.31241,-3.357905 1.34841,-4.274727 0.17249,-4.392883 -2.2093,-0.221992 -4.55932,-0.914609 -7.27148,-2.143113 -3.89592,-1.764699 -5.36134,-2.177671 -6.78183,-1.911188 -1.40602,0.263772 -2.38363,1.670474 -2.38537,3.432353 -0.002,1.620752 -1.00721,4.490005 -2.38319,6.799881 -2.10269,3.5298 -1.20316,5.178674 3.39586,6.224698 2.99016,0.680095 5.52838,1.960767 6.5398,3.299676 1.7354,2.297323 2.46333,2.871956 3.6381,2.871956 0.83732,0 1.25031,-0.193434 1.62105,-0.759266 z m -39.99456,-9.660025 c 4.05471,-11.745709 4.39702,-12.342407 7.08222,-12.34536 0.88258,-9.48e-4 2.14338,-0.151354 2.80177,-0.334187 0.97498,-0.270752 1.23292,-0.51166 1.39029,-1.298465 0.34474,-1.72371 1.38047,-1.927476 10.84906,-2.134391 l 8.378,-0.183083 -1.58075,-1.090725 C 287.61745,62.228686 277.27615,54.773654 275.94434,53.667492 l -1.54157,-1.280387 0.18445,-1.913142 c 0.10145,-1.052227 1.0477,-4.971901 2.10277,-8.710389 2.15584,-7.638858 3.10449,-11.865549 2.74403,-12.225998 -0.38486,-0.38486 -2.56367,0.927949 -7.16287,4.315863 -5.56098,4.09639 -7.01488,4.829143 -9.56892,4.822637 -4.663,-0.01189 -12.33913,-2.973715 -17.67869,-6.821339 -1.3354,-0.962276 -2.86478,-1.97546 -3.39862,-2.25152 -0.96364,-0.498316 -0.97062,-0.495991 -0.97062,0.322931 0,1.729252 1.53038,6.793508 4.56037,15.090872 2.20151,6.028671 1.46914,7.560069 -6.40426,13.391308 -5.54038,4.103348 -10.16986,7.754496 -10.16986,8.020702 0,0.576141 2.09928,0.726999 12.63722,0.908119 l 11.21454,0.192748 3.91182,11.957262 c 2.1515,6.576492 3.96368,11.905398 4.02706,11.842012 0.0634,-0.06338 1.41035,-3.866892 2.99324,-8.452242 z"
     id="path3747"
     inkscape:connector-curvature="0"
     transform="scale(0.74999999)" />
  <path
     style="fill:#aa8800;stroke-width:0.3161512"
     d="m 460.53746,133.87193 c -7.25536,-0.58238 -10.2513,-0.89576 -14.81884,-1.55011 -28.28484,-4.05207 -56.84018,-15.15712 -80.65883,-31.36787 -12.33845,-8.397439 -24.34508,-19.119071 -33.79871,-30.181442 -5.93013,-6.939269 -9.97958,-12.754184 -9.62389,-13.819661 0.1825,-0.54668 3.55674,1.278095 9.59443,5.188616 6.0977,3.949402 15.51107,8.813755 20.84018,10.769172 4.33985,1.592422 9.47475,2.898993 13.77837,3.505899 10.02006,1.413051 19.50882,-0.923149 24.22451,-5.96424 4.40003,-4.70364 7.14344,-12.750492 7.19399,-21.101091 0.0307,-5.068764 -0.57447,-7.499274 -2.6796,-10.762271 -2.6145,-4.052524 -8.42589,-9.089549 -12.12408,-10.508562 -7.49529,-2.87597 -19.75825,-1.200172 -22.02801,3.010246 -0.6141,1.139145 1.21828,3.252046 4.69665,5.415664 1.92763,1.199032 5.57166,4.727039 6.70217,6.488795 1.48229,2.309942 1.35394,2.767467 -1.54014,5.490003 -2.98686,2.809832 -6.3633,4.610733 -10.61044,5.659331 -3.38472,0.835673 -10.21235,0.976974 -14.06873,0.291156 -5.87261,-1.044386 -13.13297,-3.676838 -17.72341,-6.42613 -7.91784,-4.742139 -17.02096,-13.914602 -23.14174,-23.318026 -3.74472,-5.753059 -6.87368,-13.119712 -6.87368,-16.1830176 0,-1.4513768 0.0403,-1.5214498 0.87507,-1.5214498 1.69732,0 4.44311,2.2292716 13.04497,10.5910654 8.95136,8.701525 14.19244,13.003966 18.16039,14.907982 2.51636,1.20747 3.28344,1.293426 4.28745,0.480428 1.73401,-1.404112 -0.69616,-5.180619 -6.19859,-9.632674 -6.05454,-4.898774 -10.36687,-9.553714 -11.206,-12.096282 -0.54953,-1.6651032 0.0838,-2.1530737 4.71672,-3.6341928 7.24229,-2.3153181 14.29821,-3.2299592 24.8492,-3.2211396 12.61451,0.010545 21.06688,1.3413629 33.0378,5.2017684 14.93392,4.815919 36.42762,14.869862 67.65636,31.647104 10.88239,5.846426 28.22015,14.46995 35.72509,17.769089 12.8134,5.632717 17.97649,8.60292 21.97944,12.644256 3.85749,3.894477 5.51637,8.028786 5.51637,13.748094 0,3.658094 -0.6061,6.384341 -2.08639,9.38474 -2.12163,4.300301 -5.30407,6.73942 -9.68113,7.4199 -4.766,0.74096 -8.96468,-0.4731 -10.8013,-3.123203 -1.22068,-1.761354 -0.94706,-2.343635 2.19235,-4.665336 3.00737,-2.224057 3.45897,-3.131927 3.22673,-6.486892 -0.21149,-3.055361 -0.63866,-3.952133 -2.17547,-4.567044 -1.59159,-0.636826 -5.11858,-0.631136 -7.00404,0.01132 -2.02832,0.691116 -4.1588,3.085737 -4.84478,5.445458 -1.38696,4.770981 0.95753,11.138105 5.67231,15.404737 5.71676,5.17337 13.666,5.92585 21.5968,2.04437 4.4307,-2.16846 7.58276,-5.84724 10.28953,-12.008907 1.83382,-4.174514 1.94173,-6.273461 0.61199,-11.903292 -1.23921,-5.246503 -1.26427,-6.487327 -0.14873,-7.364808 0.4574,-0.359796 1.41771,-0.813261 2.13402,-1.007697 1.95857,-0.531647 6.54987,-0.158395 9.76079,0.793504 2.86702,0.849951 13.80095,5.092848 14.23006,5.521954 0.13394,0.133944 -0.86153,1.609858 -2.21217,3.279803 -1.35063,1.669936 -3.80724,5.116332 -5.45913,7.658643 -8.27001,12.7278 -10.53564,16.07361 -12.85995,18.99111 -4.4012,5.52445 -4.47479,5.83831 -1.36888,5.83831 4.48945,0 8.8172,-2.82552 13.68407,-8.9341 0.79783,-1.00139 3.1194,-4.34469 5.15903,-7.429556 7.11157,-10.756007 11.14394,-13.634744 19.84581,-14.168054 6.64577,-0.407297 12.30122,0.7917 12.97201,2.750162 1.35589,3.958671 -15.67226,18.951888 -31.5833,27.808968 -17.81087,9.91464 -39.0501,16.06449 -61.01718,17.66761 -4.01106,0.29272 -16.79619,0.36833 -19.91752,0.11779 z m 2.80725,-20.66739 c -0.68515,-10.17696 -0.51555,-11.78334 1.76138,-16.683129 0.87797,-1.889335 1.59632,-3.606425 1.59632,-3.815758 0,-0.286332 -0.72435,-0.321981 -2.9244,-0.143925 -1.60842,0.130175 -6.19657,0.241985 -10.19588,0.248473 -7.25542,0.01176 -7.27636,0.0098 -9.48454,-0.879947 -3.77691,-1.521889 -5.19924,-1.939344 -5.51776,-1.619478 -0.16329,0.163987 -0.44648,3.783726 -0.6293,8.043863 -0.18281,4.260141 -0.49678,10.206541 -0.69769,13.214221 -0.28556,4.27485 -0.28134,5.55152 0.0193,5.8488 0.27701,0.27389 1.90473,0.35548 5.81808,0.29163 8.07675,-0.13177 12.0874,0.45446 17.77639,2.59835 1.55779,0.58706 2.8737,1.02735 2.92426,0.97844 0.0505,-0.0489 -0.15023,-3.6856 -0.44618,-8.08154 z"
     id="path3749"
     inkscape:connector-curvature="0"
     transform="scale(0.74999999)" />
  <path
     style="fill:#aa8800;stroke-width:0.3161512"
     d="m 520.36019,63.245615 c -9.58928,-0.994983 -20.36002,-3.765672 -30.8949,-7.94748 -10.0302,-3.981478 -26.00897,-12.580136 -36.35739,-19.565007 -3.89415,-2.62844 -5.25011,-3.836608 -4.9148,-4.37914 0.35644,-0.576745 1.38782,-0.398293 8.24103,1.425893 18.61148,4.954001 33.30334,7.077619 48.9968,7.08219 9.55989,0.0028 23.65992,-1.078594 27.00104,-2.070801 0.92015,-0.273256 1.72643,-0.443406 1.79173,-0.37811 0.0653,0.0653 -0.58917,1.604356 -1.45436,3.420134 -0.86519,1.815778 -1.66187,3.774672 -1.77038,4.353099 -0.43901,2.340049 0.98184,3.304181 7.02088,4.764077 2.07266,0.501051 5.60998,1.356825 7.86072,1.901721 4.58124,1.109105 8.49764,2.856159 9.48629,4.231714 0.58427,0.81292 0.59687,0.952562 0.15691,1.738831 -1.0174,1.818254 -6.07375,3.590489 -13.79341,4.834553 -4.63939,0.74766 -16.64827,1.078266 -21.37016,0.588326 z"
     id="path3751"
     inkscape:connector-curvature="0"
     transform="scale(0.74999999)" />
  <path
     style="fill:#aa8800;stroke-width:0.3161512"
     d="m 577.5134,76.338097 c -1.0433,-0.06269 -5.73814,-0.330397 -10.43299,-0.594905 -18.7482,-1.05628 -29.59143,-2.178855 -29.07755,-3.010332 0.53256,-0.861692 7.2849,-2.430644 21.0157,-4.883138 24.2531,-4.331911 29.83643,-6.377393 49.10454,-17.989689 9.35414,-5.637455 11.59862,-6.82798 12.86109,-6.821823 1.14037,0.0056 3.36914,1.093368 3.76831,1.839214 0.91696,1.713346 -0.0526,4.151281 -2.16477,5.443172 -3.35841,2.054166 -3.8166,2.464138 -3.8166,3.415008 0,2.110944 1.55289,2.10169 10.59107,-0.06312 7.707,-1.845967 9.8905,-2.212027 12.19856,-2.045077 2.9056,0.210173 4.63032,1.82305 4.06338,3.799875 -0.41913,1.461409 -2.57831,4.049638 -5.27664,6.325139 -6.77217,5.710983 -15.87382,10.30907 -24.89595,12.577258 -7.00922,1.762138 -9.33723,1.967321 -23.23712,2.048037 -7.04227,0.0409 -13.65773,0.02308 -14.70103,-0.03962 z"
     id="path3753"
     inkscape:connector-curvature="0"
     transform="scale(0.74999999)" />
  <path
     style="fill:#aa8800;stroke-width:0.3161512"
     d="m 653.70584,80.935706 c -6.56437,-0.536296 -16.05352,-2.157514 -18.57388,-3.173341 -1.08599,-0.437705 -1.09392,-0.906836 -0.0366,-2.1634 1.80677,-2.147231 7.26762,-5.211787 11.40492,-6.400292 3.59233,-1.031955 10.84249,-1.024848 14.46278,0.01418 4.55279,1.306652 9.03368,4.255143 9.54149,6.278436 0.6846,2.727645 -2.23052,4.759411 -7.83737,5.46245 -2.90641,0.364434 -4.3146,0.3616 -8.96135,-0.01803 z"
     id="path3755"
     inkscape:connector-curvature="0"
     transform="scale(0.74999999)" />
  <path
     style="fill:#aa8800;stroke-width:0.3161512"
     d="m 956.10447,484.38547 c -13.06137,-1.69814 -24.79831,-9.96151 -34.23723,-24.1047 -6.09874,-9.13828 -10.01677,-20.1541 -14.2569,-40.08421 -7.09118,-33.33109 -9.93973,-76.62613 -10.00522,-152.06872 -0.0242,-27.86957 -0.52694,-66.36373 -0.92698,-70.97595 -0.5642,-6.50489 -1.13941,-8.42406 -2.38195,-7.94725 -0.65918,0.25295 -1.03465,1.32814 -1.93528,5.54187 -2.09319,9.7933 -5.08371,31.94971 -6.12805,45.40194 -1.20059,15.46506 -0.92791,46.9429 0.64224,74.13746 1.44987,25.11147 3.375,44.40027 6.3265,63.38832 0.51354,3.30378 0.92998,6.36254 0.92542,6.79725 -0.008,0.77374 -0.0184,0.77707 -0.48727,0.15807 -0.26343,-0.34776 -1.30974,-2.19725 -2.32511,-4.10996 -8.59996,-16.20015 -13.49595,-36.88386 -16.12703,-68.13059 -1.21135,-14.38607 -1.69774,-24.03449 -2.55002,-50.58419 -2.11645,-65.93002 -4.33749,-87.12303 -11.42926,-109.05679 -5.62536,-17.39834 -18.32083,-39.53427 -22.67383,-39.53427 -0.72086,0 -1.30288,1.05498 -1.30288,2.36161 0,1.74896 1.27542,4.20697 3.84089,7.4022 2.37381,2.95653 4.06289,6.32631 4.06289,8.10562 0,2.26567 -0.97856,2.54134 -4.60786,1.29809 -7.31681,-2.50644 -18.59091,-8.62228 -34.40739,-18.66493 -9.42505,-5.98442 -14.67583,-9.17376 -17.12417,-10.4013 -6.35688,-3.18717 -18.80986,-2.58536 -25.66628,1.24037 -5.90301,3.29374 -13.55588,11.4398 -14.15625,15.06855 -0.28586,1.72776 -0.38866,1.87237 -1.0713,1.50704 -1.71145,-0.91594 -2.84913,-6.82814 -2.24204,-11.65127 1.39422,-11.076652 8.73755,-21.451528 18.89358,-26.693442 4.10972,-2.12118 6.81695,-3.11147 11.17027,-4.086017 2.80728,-0.628445 4.11129,-0.733011 8.82656,-0.70778 4.87123,0.02606 5.89376,0.125951 8.55336,0.835538 1.66139,0.443265 4.44983,1.461019 6.19653,2.261676 4.81455,2.206911 5.54398,2.275079 10.59392,0.990039 4.83532,-1.230422 15.80595,-3.428647 25.42646,-5.094788 7.76761,-1.345243 13.05964,-1.653263 23.04639,-1.341404 25.70296,0.802633 45.41514,7.385291 62.5554,20.889667 4.28055,3.372534 12.65333,11.865211 16.13605,16.367121 16.00701,20.6913 25.78001,45.76613 30.8658,79.19313 2.70505,17.77933 3.64247,32.86095 3.37996,54.37801 -0.27554,22.58407 -2.08966,42.17384 -5.78226,62.43986 -4.15316,22.79365 -13.74775,58.95547 -17.78732,67.04006 -1.87099,3.7445 -2.1863,3.11683 -2.23149,-4.44212 -0.0647,-10.82192 1.80486,-29.33651 5.31532,-52.63918 1.8855,-12.51601 4.24624,-29.16701 4.90814,-34.61855 2.51388,-20.70481 2.56948,-44.69051 0.144,-62.12371 -0.67125,-4.82468 -1.71666,-8.71743 -2.39879,-8.9323 -0.80006,-0.25202 -1.53829,4.43253 -2.7777,17.62645 -2.0034,21.32686 -3.93693,33.75644 -12.04438,77.4265 -6.33604,34.12859 -8.97804,54.82988 -9.58671,75.11646 -0.80407,26.79884 2.47,47.81173 10.61384,68.11952 0.93893,2.34132 3.85851,8.69232 6.48797,14.11333 l 4.78082,9.8564 3.50681,0.84283 c 5.34948,1.28569 11.15656,2.04455 18.08623,2.36338 6.40222,0.29459 7.50357,0.45887 7.3115,1.09057 -0.27256,0.89641 -6.83551,3.14855 -12.19573,4.18511 -2.988,0.57783 -8.9952,0.80755 -11.75017,0.44938 z m -36.5611,-356.17185 c 3.67504,-0.92992 10.0044,-4.39077 10.0044,-5.47033 0,-1.5047 -10.54897,-10.71252 -18.49485,-16.14349 -9.26745,-6.33427 -23.45764,-13.266544 -33.94864,-16.584797 -7.95037,-2.514661 -22.36421,-4.396151 -34.02387,-4.441252 -5.50986,-0.02131 -6.09842,0.0304 -7.1134,0.625076 -1.47305,0.863053 -1.6078,1.845261 -0.3429,2.499366 0.52849,0.273294 2.91223,0.935431 5.2972,1.471416 10.50928,2.361801 19.44575,7.106344 35.96519,19.094611 16.56705,12.02281 25.11881,16.98177 32.42759,18.80398 2.98063,0.74313 7.6072,0.8089 10.22928,0.14542 z"
     id="path3757"
     inkscape:connector-curvature="0"
     transform="scale(0.74999999)" />
  <path
     style="fill:#aa8800;stroke-width:0.3161512"
     d="m 771.28352,156.53742 c -4.62166,-1.28433 -10.16339,-4.05279 -10.91177,-5.45115 -0.25723,-0.48065 -0.20193,-0.76522 0.24704,-1.27118 1.58415,-1.78527 6.07515,-2.59139 9.47633,-1.70096 3.25371,0.85181 5.06925,0.61527 5.80318,-0.75608 0.84794,-1.58439 -1.10979,-3.71031 -7.11546,-7.72675 -6.03612,-4.0368 -8.91172,-7.46473 -10.10494,-12.04581 -0.55155,-2.11755 -0.62,-5.65329 -0.149,-7.69632 1.22848,-5.3287 5.6399,-9.43413 11.48359,-10.68707 3.49463,-0.74927 11.07222,-0.65494 14.20072,0.17679 7.89676,2.09941 13.404,8.02104 15.09901,16.23517 0.71893,3.48392 0.77424,7.90847 0.14338,11.4691 -1.07622,6.0743 -5.92821,12.25539 -12.94077,16.48566 -5.37538,3.24266 -10.58873,4.25874 -15.23131,2.9686 z"
     id="path3759"
     inkscape:connector-curvature="0"
     transform="scale(0.74999999)" />
  <path
     style="fill:#ffffff;fill-opacity:1;stroke-width:0.3161512"
     d="m 435.08729,581.12176 c -1.65189,-0.33256 -3.05013,-0.61181 -3.10717,-0.6206 -0.0571,-0.009 -0.0571,-3.51984 0,-7.80239 l 0.10373,-7.78643 -6.00687,0.27784 c -3.30378,0.15282 -9.82519,0.27786 -14.49202,0.27786 h -8.48512 l -0.64011,-0.79038 c -0.55156,-0.68105 -0.61985,-1.11832 -0.49374,-3.16151 0.25836,-4.18549 2.3209,-9.40142 9.87612,-24.97594 2.6571,-5.47732 5.27666,-10.9817 5.82133,-12.23196 4.28457,-9.83536 5.93994,-17.15803 7.16907,-31.71306 0.67562,-8.00074 0.98089,-35.70896 0.48242,-43.78694 -1.62486,-26.33065 -5.28245,-51.4967 -12.53182,-86.22562 -2.89639,-13.87541 -7.06671,-32.84277 -7.38659,-33.59569 -0.14777,-0.34776 -2.22767,-2.69364 -4.62197,-5.21304 -9.31689,-9.80363 -13.27608,-15.37986 -16.86038,-23.74662 -4.82652,-11.26639 -7.07391,-21.64948 -11.113,-51.34274 -2.51719,-18.50494 -3.55664,-24.36763 -4.61043,-26.00344 -0.73812,-1.14582 -1.76792,-0.89305 -3.37909,0.82943 -3.68923,3.94407 -5.07312,9.13999 -6.705,25.17401 -1.20071,11.79776 -2.28106,17.54639 -3.29752,17.54639 -1.2505,0 -3.27472,-9.32768 -4.5968,-21.18213 -0.82826,-7.42643 -1.41358,-15.92543 -1.9161,-27.8213 -1.04573,-24.75453 -3.35942,-37.14126 -5.8752,-31.45393 -2.07654,4.69437 -4.2099,18.33917 -5.19126,33.20308 -0.54751,8.2924 -0.93138,10.42267 -1.87813,10.42267 -1.95562,0 -4.31294,-8.457 -5.55181,-19.91731 -0.64991,-6.01222 -1.14105,-8.69438 -1.59207,-8.69438 -0.99123,0 -1.90462,4.9098 -5.03831,27.08256 -5.40638,38.25345 -6.43962,44.62001 -7.39663,45.57703 -0.43037,0.43036 -0.51427,0.39295 -0.79914,-0.35631 -1.1297,-2.97133 -1.1967,-15.95897 -0.32409,-62.81874 0.32602,-17.50768 0.3312,-24.60644 0.0255,-34.93471 -0.3943,-13.32195 -0.61816,-16.09322 -1.48763,-18.41581 -0.40505,-1.082 -0.65495,-1.34364 -1.28335,-1.34364 -1.37217,0 -2.24004,3.03093 -3.25946,11.38323 -0.61016,4.99919 -0.90432,8.09718 -2.71653,28.6099 -1.42856,16.17013 -3.29365,30.77176 -4.29883,33.65523 -0.72594,2.08243 -1.86559,0.60882 -2.46376,-3.18573 -0.5815,-3.68882 -0.96374,-11.33435 -1.44429,-28.88875 -0.82678,-30.2024 -1.40518,-39.38155 -2.56206,-40.65989 -0.71823,-0.79363 -0.86048,-0.76716 -2.20062,0.40949 -1.4332,1.25837 -4.74602,6.28387 -12.15303,18.43597 -10.69861,17.55236 -15.07359,24.31522 -23.72461,36.67354 -6.20528,8.86449 -6.74243,9.76289 -6.47914,10.83644 0.11617,0.47364 1.99568,4.5069 4.1767,8.96281 l 3.9655,8.10166 -1.9843,2.96364 c -3.85949,5.7643 -7.77965,10.60384 -12.1535,15.00382 -8.62444,8.67598 -14.4568,12.32587 -22.28487,13.94589 -3.18439,0.65901 -9.74436,0.41527 -12.64984,-0.47001 -8.05758,-2.4551 -14.51787,-7.1725 -20.92809,-15.28205 -6.0552,-7.6604 -12.68373,-21.83576 -15.28183,-32.68076 -1.38956,-5.8003 -1.51643,-7.91206 -2.05458,-34.19666 -0.16791,-8.20129 -0.39179,-15.13685 -0.49752,-15.41237 -0.35262,-0.91892 -1.08887,-0.51639 -1.71127,0.93561 -0.61736,1.44024 -0.96433,3.1766 -1.57659,7.88992 -0.38782,2.98552 -1.37428,4.82457 -3.4282,6.39114 -2.10521,1.6057 -3.86776,1.33773 -4.60705,-0.70042 -0.12615,-0.34777 -0.43224,-3.11966 -0.68021,-6.15976 -0.49501,-6.06873 -0.83327,-7.59282 -1.68517,-7.59282 -1.19902,0 -2.06884,1.48213 -6.03008,10.27492 -3.68275,8.17464 -10.32114,21.45046 -11.06065,22.1197 -1.12352,1.01677 -1.33116,0.30737 -1.89377,-6.47022 -0.81616,-9.83189 -1.10461,-21.75422 -1.11291,-46 -0.008,-22.56758 0.0578,-26.17133 0.55222,-30.35051 1.3277,-11.22351 2.79711,-20.33875 4.6349,-28.751745 1.48614,-6.803198 1.47661,-6.286635 0.14064,-7.622602 C 135.30377,80.599074 82.886116,48.112161 30.339686,18.263143 9.4154027,6.3770982 1.0116905,1.4080723 1.0116905,0.92181109 c 0,-0.86498396 13.4685485,2.72473151 29.8898105,7.96640491 17.521643,5.592916 31.476421,10.515509 78.866199,27.820308 31.5066,11.504912 41.66803,15.146649 45.27936,16.227585 5.04631,1.510451 7.686,1.811009 9.76281,1.111604 3.34312,-1.125852 9.05974,-6.736306 11.02136,-10.816668 2.33376,-4.854457 2.56692,-6.445096 2.87984,-19.64616 0.15251,-6.433677 0.40081,-12.124399 0.55179,-12.646048 0.20014,-0.691501 0.43791,-0.920242 0.87765,-0.844318 2.17279,0.375147 7.85739,5.421166 9.09495,8.073276 0.41661,0.892802 1.49843,3.757296 2.40404,6.365544 3.71791,10.707917 5.30425,12.324711 10.74311,10.94934 3.32244,-0.840178 6.88294,-2.355485 8.32218,-3.541824 1.01997,-0.840745 1.17943,-1.151313 1.17734,-2.293077 -0.003,-1.416417 -0.60234,-3.553546 -2.17328,-7.744254 -0.57527,-1.534616 -0.98582,-3.230439 -0.98582,-4.072045 V 16.38925 l 1.34364,0.159286 c 0.73901,0.08761 3.3354,1.064803 5.76976,2.171547 l 4.42612,2.012263 3.79381,0.0036 c 4.42618,0.0042 5.34976,-0.246515 18.02062,-4.891628 15.23698,-5.585847 19.70936,-6.7796874 25.45017,-6.7935794 6.74159,-0.016313 7.55592,0.5639492 13.11043,9.3420684 7.30966,11.551879 13.61451,19.31776 30.63705,37.736584 16.92636,18.314775 22.09942,24.57479 27.54588,33.33386 8.30198,13.351269 12.84244,28.316059 12.43489,40.983679 -0.16768,5.21258 -1.39805,7.08801 -4.81956,7.34639 -3.1508,0.23794 -5.60375,-1.81586 -6.04421,-5.06065 -0.30427,-2.24163 -1.02898,-3.96294 -1.76713,-4.19721 -1.0058,-0.31924 -2.34546,0.14125 -3.64367,1.25246 -3.24675,2.77909 -4.50348,9.49646 -2.71065,14.48881 0.8599,2.39458 3.19474,5.86878 5.0881,7.5711 2.47132,2.22192 4.77496,3.18832 7.9862,3.35028 4.33061,0.21842 5.26961,-0.2235 9.9145,-4.666 2.1302,-2.03741 4.76744,-4.33196 5.86047,-5.099 3.37981,-2.37176 3.29101,-2.11107 3.4175,-10.03224 0.11125,-6.96823 -0.26854,-12.91512 -1.04346,-16.33831 -0.23616,-1.0433 -0.71618,-3.15551 -1.06673,-4.6938 l -0.63736,-2.79689 1.15222,0.21615 c 3.88534,0.7289 28.07138,10.9433 40.8467,17.25065 15.70731,7.75491 25.31691,14.18274 32.88715,21.99809 3.85974,3.98469 5.86638,6.70168 7.78643,10.54283 2.0472,4.09551 2.71384,6.94964 2.73341,11.7029 0.0253,6.11105 -1.42404,10.73668 -4.34072,13.85485 -4.5474,4.86154 -14.06124,4.92133 -19.46901,0.12237 -2.57362,-2.28392 -1.93525,-3.55791 4.21139,-8.40429 2.2939,-1.80865 4.44044,-3.58763 4.77009,-3.95327 1.95726,-2.17093 0.15552,-9.1739 -3.30043,-12.82804 -2.09165,-2.21161 -3.76122,-3.01794 -6.71078,-3.24102 -7.2711,-0.54991 -11.60123,4.8433 -11.60123,14.4494 0,4.06689 0.64343,6.86074 2.40271,10.43299 1.29306,2.6256 1.90045,3.42296 4.82827,6.33831 2.67109,2.65973 3.87481,3.60583 5.94576,4.6732 3.48572,1.79655 6.68498,2.58299 10.50779,2.58299 5.35528,0 8.54035,-1.26234 12.08851,-4.79103 3.48421,-3.46505 6.04124,-9.43599 8.00103,-18.6832 0.28558,-1.34759 0.63954,-2.45017 0.78655,-2.45017 0.42203,0 5.23066,5.01972 6.81429,7.1134 1.94019,2.56509 4.71236,8.24514 5.6611,11.59928 4.11051,14.53224 0.78352,31.63137 -8.183,42.05678 -4.2701,4.96486 -10.52189,9.13485 -15.99991,10.67203 -2.96167,0.83107 -8.60617,0.91732 -10.74098,0.16412 -2.88261,-1.01705 -6.94784,-4.40129 -6.94784,-5.78398 0,-1.02687 1.38446,-1.9348 4.60652,-3.02091 7.21431,-2.43187 8.98799,-3.97015 8.98799,-7.79514 0,-3.238 -2.39722,-7.76823 -5.82718,-11.01215 -3.7205,-3.5187 -7.17638,-3.86283 -10.83839,-1.07926 -2.74138,2.08375 -6.4037,8.34215 -7.50372,12.82277 -0.70018,2.85184 -0.98592,8.22519 -0.52683,9.9062 0.53224,1.94881 3.14014,5.71564 5.44314,7.86202 3.1574,2.94265 7.14328,5.08303 11.82342,6.34909 2.58406,0.69902 9.93648,0.95589 13.05597,0.45613 11.04655,-1.76973 20.68751,-8.73601 25.80625,-18.64686 3.65161,-7.07019 4.91464,-14.22689 4.92147,-27.88657 0.004,-7.42758 -0.18716,-8.7477 -2.33415,-16.14301 -0.79369,-2.73398 -1.35973,-5.1881 -1.25787,-5.45361 0.27935,-0.72796 0.81545,-0.60875 4.16302,0.92572 3.78227,1.73374 6.40554,2.37461 9.74479,2.38069 4.62279,0.008 10.93086,-1.43723 14.82148,-3.3967 5.29351,-2.66602 7.91494,-5.60195 9.51037,-10.65135 2.36159,-7.47433 0.51618,-14.70045 -4.43039,-17.34818 -1.13896,-0.60965 -1.77468,-0.68845 -5.5542,-0.68845 -4.08638,0 -4.33099,0.037 -5.74649,0.86911 -3.13493,1.84286 -4.21228,4.16767 -4.21228,9.08966 0,4.76807 1.05193,5.94257 5.97874,6.67534 1.65489,0.24613 2.69256,0.57329 3.09509,0.9758 0.59234,0.59233 0.59269,0.62754 0.0161,1.61465 -0.78921,1.35146 -3.2648,3.18053 -5.42212,4.00609 -5.07144,1.94074 -12.54393,1.24818 -17.73665,-1.64385 -4.16965,-2.32225 -11.28255,-8.40512 -20.94502,-17.91198 -3.60807,-3.54997 -6.56013,-6.55151 -6.56013,-6.67011 0,-0.21368 4.69026,-0.60009 16.28178,-1.34137 3.59006,-0.22958 13.82972,-0.38845 25.45018,-0.39487 19.60589,-0.0108 24.70022,0.20246 29.75943,1.24595 6.71268,1.38454 12.79208,6.08011 14.81788,11.44493 0.86149,2.28139 1.16411,5.1157 0.649,6.07822 -0.52396,0.97897 -3.1158,2.56037 -4.19637,2.56037 -1.12942,0 -1.36365,-0.58169 -1.65515,-4.10996 -0.30926,-3.74349 -0.69945,-5.01675 -1.90759,-6.2249 -1.96848,-1.96849 -4.37518,-1.11153 -6.02571,2.1456 -1.7126,3.37968 -0.61596,7.38364 2.95525,10.79001 2.2754,2.17036 3.9536,3.04362 6.32568,3.29155 5.34507,0.55867 9.98485,-3.57009 11.42672,-10.16819 0.73451,-3.36108 1.15098,-3.82188 2.82427,-3.12486 3.73827,1.5572 6.73854,7.73919 7.1975,14.8303 0.10471,1.61769 0.0319,3.66382 -0.1687,4.74227 -0.74264,3.99205 -3.60488,8.09255 -6.67575,9.56378 -2.72501,1.30551 -7.59649,1.65181 -8.01178,0.56952 -0.093,-0.24231 0.1048,-1.76782 0.43954,-3.39002 1.07305,-5.20028 0.85247,-5.93195 -1.86703,-6.19326 -1.82217,-0.17508 -3.62483,0.62638 -4.95374,2.20244 -1.28746,1.52689 -1.73071,2.82969 -1.73071,5.08697 0,1.70037 0.14486,2.22961 0.9379,3.42688 1.15888,1.74962 3.84196,3.78915 6.96588,5.2951 2.19669,1.05896 2.58049,1.142 5.2165,1.12864 4.25305,-0.0216 8.00991,-1.61529 11.71299,-4.96884 2.1012,-1.90289 3.39259,-3.91287 4.54249,-7.07024 1.28452,-3.52691 1.71155,-6.65351 1.53454,-11.23588 -0.13879,-3.59392 -0.25435,-4.18464 -1.47368,-7.53536 -0.83056,-2.28229 -1.2892,-4.04393 -1.23207,-4.73224 0.08,-0.96468 0.22402,-1.12836 1.19752,-1.36151 3.18642,-0.76314 4.96673,-1.74279 7.62591,-4.19629 3.71181,-3.42469 4.39102,-4.93228 3.24071,-7.19302 -1.35831,-2.66955 -5.71279,-6.57396 -8.30555,-7.44712 -2.23958,-0.75422 -4.45798,-0.28637 -4.45798,0.94017 0,0.35615 0.29146,1.78902 0.64767,3.18415 0.36547,1.43149 0.6065,3.24502 0.55326,4.16264 -0.0898,1.54714 -0.15577,1.65671 -1.35901,2.25834 -1.12107,0.56054 -1.87458,0.63024 -6.63917,0.61411 -4.75194,-0.0161 -5.61263,-0.10161 -7.42956,-0.73824 -3.47437,-1.21739 -5.61146,-2.73972 -7.64459,-5.44556 -1.09642,-1.45919 -3.10455,-5.00023 -3.10455,-5.4744 0,-0.58892 26.85661,-5.78424 38.41237,-7.43075 11.56494,-1.64783 15.63109,-1.97622 26.55671,-2.14486 15.49169,-0.2391 22.2198,0.49745 30.85797,3.37816 6.98491,2.32937 11.1582,4.87009 15.54999,9.46692 3.2973,3.45123 5.05156,5.90888 7.01634,9.8296 2.80483,5.59705 4.39121,10.79911 5.39901,17.70447 0.712,4.87861 0.48697,14.28507 -0.4446,18.58394 -1.31279,6.0582 -3.39231,11.04521 -6.46213,15.49728 -4.08977,5.93124 -13.11664,12.07024 -21.24992,14.45161 -3.44747,1.00941 -9.87451,1.39176 -14.01011,0.83349 -7.21426,-0.97387 -15.49293,-5.13137 -21.22927,-10.66122 -6.31101,-6.08386 -9.17253,-12.34481 -9.17765,-20.08065 -0.003,-4.36983 0.74855,-7.30744 3.06506,-11.98219 2.08723,-4.21207 4.80815,-7.41123 6.14278,-7.22241 0.77887,0.11019 0.87302,0.26466 3.34052,5.48049 1.56043,3.29849 4.63911,6.54848 6.74142,7.11657 3.36773,0.91002 6.65536,-0.34891 9.90388,-3.7925 2.74792,-2.91293 3.18392,-3.94202 2.93922,-6.93722 -0.28959,-3.54459 -2.04331,-6.94236 -5.22411,-10.1215 -2.94941,-2.94789 -5.08428,-4.15011 -7.74074,-4.35909 -5.07284,-0.39906 -8.85521,1.46868 -15.16802,7.49004 -8.80108,8.39477 -12.94152,20.31369 -11.616,33.43853 0.69089,6.84099 2.39213,10.41181 7.27445,15.26889 8.02509,7.98355 19.95006,13.2575 34.26943,15.15602 3.20341,0.42473 12.20303,0.4209 16.37234,-0.007 12.69258,-1.3025 22.2921,-6.54287 29.48992,-16.0985 4.06216,-5.3928 6.47869,-10.9029 8.28739,-18.89656 0.52516,-2.32103 1.02867,-3.87285 1.25661,-3.87285 1.21668,0 12.42193,4.33647 14.17739,5.4867 1.02635,0.67248 1.37358,2.47192 1.76453,9.14398 0.65324,11.14892 0.67116,11.32845 1.14953,11.51201 0.25017,0.096 0.75592,-0.0917 1.12392,-0.41706 0.93407,-0.82591 4.29482,-5.41045 8.14554,-11.11162 1.794,-2.65612 3.36413,-4.89254 3.4892,-4.96983 0.12504,-0.0773 3.05772,0.7896 6.51702,1.92643 7.48209,2.45884 13.92851,4.30685 14.56145,4.17435 0.30761,-0.0644 -0.48675,-1.37358 -2.44047,-4.02203 -4.54904,-6.16665 -6.64132,-9.36894 -7.08188,-10.8389 -0.49193,-1.64134 -0.21761,-4.04809 0.75452,-6.62024 0.63405,-1.6775 1.27488,-2.80707 5.33983,-9.41221 0.90049,-1.46324 1.63728,-2.94083 1.63728,-3.28352 0,-0.55122 -0.15497,-0.60179 -1.34364,-0.43852 -0.739,0.10151 -4.82431,1.18786 -9.07844,2.41411 -4.25416,1.22625 -8.11715,2.22954 -8.58445,2.22954 -0.74245,0 -1.56985,-0.97091 -6.55951,-7.69741 -3.14042,-4.23359 -5.91721,-7.86951 -6.17064,-8.07983 -0.61241,-0.50827 -0.71915,0.5779 -1.17766,11.98343 -0.23895,5.94342 -0.48302,9.088 -0.71706,9.23856 -0.42532,0.27356 -13.25809,4.52472 -14.50767,4.80599 -1.25984,0.28358 -1.42404,-0.39493 -1.80836,-7.47327 -0.66534,-12.25322 -2.65839,-20.3547 -7.43439,-30.21979 -4.96923,-10.26417 -9.88905,-15.41277 -18.95873,-19.84041 -10.33008,-5.04293 -20.58891,-7.06627 -33.83814,-6.67386 -13.21471,0.39137 -22.45764,1.67117 -55.16838,7.63871 -17.41918,3.17785 -27.61211,4.9009 -33.60726,5.68113 -4.1283,0.53726 -14.63492,0.65736 -15.39618,0.17599 -0.94371,-0.59675 0.42228,-1.24107 5.06193,-2.38768 12.87655,-3.18221 22.16308,-8.91547 42.96605,-26.5262 10.12911,-8.57477 16.59298,-13.417886 23.50085,-17.608265 8.00839,-4.857976 14.96426,-7.757737 19.41677,-8.094479 2.16374,-0.163643 2.319,-0.133226 2.319,0.454306 0,1.820434 -9.04246,14.220878 -15.0615,20.654758 -5.5035,5.88274 -8.40295,8.18047 -13.91303,11.02558 -4.2711,2.20537 -4.50088,3.03976 -1.10871,4.0259 4.90234,1.42514 10.82698,0.008 15.5567,-3.72017 2.86613,-2.2594 4.86828,-4.54991 10.19085,-11.65852 5.54772,-7.409303 10.09499,-12.288648 13.50408,-14.490277 5.57207,-3.5985 13.07339,-5.07258 23.86941,-4.690559 7.37986,0.261138 10.04501,1.0342 13.02028,3.776717 2.39791,2.210327 2.77119,3.247935 2.77982,7.727406 0.009,4.805963 -0.20518,5.145033 -3.28155,5.188343 -1.3236,0.0186 -2.14351,-0.12136 -2.43848,-0.41634 -0.24441,-0.24442 -0.78873,-1.8349 -1.20956,-3.5344 -1.16764,-4.715478 -1.79729,-5.361486 -5.25914,-5.395892 -1.80908,-0.01799 -2.23064,0.09472 -3.24346,0.867066 -1.95963,1.494362 -2.56573,3.047587 -2.55273,6.541826 0.0193,5.20812 1.82429,8.16273 6.00431,9.82889 1.64797,0.65688 2.38046,0.74472 6.13928,0.73622 3.70083,-0.008 4.51511,-0.1069 6.12726,-0.74138 3.1482,-1.23902 5.47745,-3.87478 6.16685,-6.97837 0.17378,-0.78248 0.53458,-3.19877 0.80172,-5.36953 0.69718,-5.665211 1.29025,-6.249841 5.31226,-5.236488 3.55104,0.894695 5.86163,2.248148 8.67762,5.08306 2.19789,2.212598 2.81903,3.091298 4.15648,5.880018 1.92501,4.01387 2.26983,5.413 2.26983,9.21009 0,3.47328 -0.53824,5.56442 -1.97888,7.68804 -1.6897,2.49074 -3.07963,3.40262 -5.41298,3.55119 -3.09528,0.1971 -4.72801,-0.87335 -7.96923,-5.22468 -2.5814,-3.46555 -4.49586,-4.11843 -6.61657,-2.25642 -0.62351,0.54746 -1.33981,1.394 -1.59175,1.8812 -0.6465,1.2502 -0.56851,3.77087 0.18596,6.0105 1.74983,5.19424 5.00192,7.92287 9.97004,8.36526 7.29244,0.64936 16.74356,-4.64718 19.97845,-11.19622 l 1.18067,-2.39029 -0.0278,-5.38962 c -0.0231,-4.43997 -0.14531,-5.81844 -0.69421,-7.82338 -1.52464,-5.56878 -3.87588,-10.023976 -6.86639,-13.010584 -2.20117,-2.19831 -3.65999,-3.015036 -6.8056,-3.810194 l -2.77479,-0.701429 3.34826,-2.660659 c 7.27698,-5.782544 8.60415,-7.511512 8.60415,-11.208935 0,-2.447418 -0.66891,-4.505354 -2.45925,-7.566058 l -1.28038,-2.188873 0.75598,-0.594639 c 1.22051,-0.960053 5.19911,-2.684813 8.23163,-3.568487 2.65381,-0.773312 3.38039,-0.833931 12.77264,-1.065648 25.25953,-0.623175 39.73594,0.890481 60.54295,6.330378 8.19929,2.143666 11.85567,3.218963 11.85567,3.486607 0,0.142388 -1.74278,1.128116 -3.87285,2.190498 -9.85266,4.914074 -14.53303,8.651452 -18.57085,14.82928 -5.77889,8.841596 -8.70977,17.875283 -13.94103,42.969733 -3.01637,14.46952 -4.47974,19.60039 -6.3112,22.12869 -1.32698,1.83182 -4.34841,3.95647 -6.86033,4.82411 -3.29059,1.1366 -8.79659,1.03386 -16.9064,-0.31549 -3.42971,-0.57065 -6.91527,-0.99403 -7.74571,-0.94085 -1.50886,0.0966 -1.5099,0.0975 -1.61107,1.33417 -0.0947,1.15732 0.0291,1.36212 1.91195,3.16151 2.15246,2.05716 7.16405,4.88367 10.90747,6.15173 4.37592,1.48232 11.4737,2.07224 15.32467,1.2737 1.86078,-0.38586 6.81825,-2.61713 9.26077,-4.16812 0.87062,-0.55286 4.12742,-2.82557 7.23733,-5.05048 8.22572,-5.88492 10.93773,-7.24188 13.50927,-6.75945 0.63192,0.11854 2.46057,1.16729 4.20361,2.41078 3.58307,2.55621 8.86943,5.23663 13.14822,6.66673 2.69601,0.90109 3.26233,0.98555 5.53265,0.82515 6.3909,-0.45152 15.11471,-4.63048 31.14089,-14.91741 8.01418,-5.14416 13.53519,-8.42022 16.31258,-9.67955 7.55399,-3.42515 17.72761,-3.54138 24.16998,-0.27613 4.60421,2.33359 6.87929,6.25087 8.63143,14.86183 1.50036,7.37354 1.62891,9.50711 1.61883,26.86704 l -0.009,16.28179 -1.16713,12.17182 c -1.57172,16.39093 -2.01,22.10559 -2.76408,36.04124 -1.06606,19.7008 -1.08886,19.81379 -5.22589,25.9244 -5.23755,7.73607 -7.03683,11.41702 -8.61177,17.61786 -0.83856,3.30156 -0.86492,3.66839 -0.85762,11.94227 0.007,7.57416 0.0877,8.93609 0.71953,12.08567 1.42132,7.08581 3.25531,12.17638 7.28428,20.21895 5.23935,10.45882 11.92336,20.60917 27.54682,41.83284 2.88005,3.91237 5.54324,7.547 5.91826,8.07697 l 0.68181,0.96359 -1.55859,5.99173 c -4.18809,16.10048 -5.6268,25.89076 -6.26988,42.6653 -0.4546,11.8583 -0.64248,25.70357 -0.99107,73.03093 -0.17034,23.12646 -0.45153,46.39879 -0.62484,51.71627 -0.4019,12.33154 -0.71801,13.75223 -3.50988,15.77465 -2.66389,1.92972 -13.78799,5.76682 -21.77441,7.51077 -3.64712,0.79638 -4.50048,0.86319 -11.06529,0.86594 -6.26365,0.003 -7.43442,-0.0788 -9.80069,-0.68182 -3.30277,-0.84165 -7.71535,-2.42206 -9.07607,-3.25066 l -1.01424,-0.61763 0.48981,-1.64937 c 0.26939,-0.90713 1.97572,-4.91766 3.79185,-8.91223 5.13945,-11.30424 8.03609,-18.9626 11.02198,-29.1408 6.1543,-20.9785 8.70412,-39.29231 8.69274,-62.43445 -0.0193,-39.31078 -6.46507,-68.35392 -20.33753,-91.63665 -5.90938,-9.91801 -15.97342,-20.51486 -25.07532,-26.40283 -4.94337,-3.1979 -14.09468,-7.47796 -15.98874,-7.47796 -1.47693,0 -1.82404,0.48201 -1.82404,2.53291 0,2.5607 0.69332,4.94524 6.75543,23.23342 l 5.4494,16.43986 -2.55962,3.37643 c -3.13161,4.13099 -5.85876,8.88318 -9.03889,15.75072 -5.3281,11.506 -8.06789,19.12727 -18.63939,51.84879 -7.35134,22.75435 -11.22021,33.13328 -15.57332,41.77809 -3.11729,6.19055 -5.46743,9.98522 -10.41001,16.80859 -6.79621,9.38235 -6.8331,9.47919 -5.45731,14.32873 0.83237,2.93388 0.86461,3.30131 0.68836,7.8408 -0.20901,5.38298 -0.7176,7.87296 -2.26545,11.091 -3.0352,6.3105 -11.64953,11.958 -23.00825,15.08411 -2.4213,0.66638 -3.20618,0.71583 -10.98562,0.6917 -11.24878,-0.0349 -14.85911,-0.74643 -14.85911,-2.92854 0,-1.99867 3.33322,-11.55965 7.16424,-20.54976 4.45631,-10.45749 9.14718,-20.46595 20.02663,-42.72891 11.4241,-23.37752 16.20588,-33.59078 20.13077,-42.99656 5.69556,-13.64923 9.22997,-26.17565 10.74911,-38.09622 0.71732,-5.62892 0.82532,-27.39226 0.16235,-32.72165 -1.25882,-10.11953 -3.83669,-18.43842 -8.634,-27.86228 -2.41087,-4.73595 -4.23067,-7.74501 -10.87364,-17.97965 -15.37611,-23.68952 -19.93577,-33.49261 -25.27841,-54.34761 -1.13163,-4.4173 -2.13844,-8.11241 -2.2374,-8.21135 -0.0989,-0.0989 -6.46725,1.91151 -14.15181,4.46767 -28.75275,9.56419 -45.13656,14.06871 -67.40148,18.53118 -18.24154,3.65609 -27.98162,4.46019 -54.06185,4.46315 -19.25895,0.002 -24.33739,-0.23474 -33.88588,-1.5809 -7.4574,-1.05135 -9.33721,-1.14932 -9.86442,-0.51407 -0.89537,1.07887 -2.63035,14.08305 -9.34875,70.07166 -8.21285,68.44307 -10.26486,84.55391 -13.6104,106.8591 -2.74916,18.32915 -3.91645,25.07797 -8.53036,49.31959 -4.69289,24.65666 -4.38006,22.64825 -4.18107,26.84073 0.14638,3.08396 0.38576,4.37247 1.50393,8.09398 1.01861,3.39025 1.33903,4.99427 1.36909,6.85378 0.037,2.28656 -0.0155,2.48479 -0.90128,3.41111 -2.29994,2.40493 -13.23441,4.10257 -27.67114,4.29612 -7.60966,0.10202 -9.06879,0.0412 -11.69759,-0.48805 z M 763.02717,275.61794 c 0.26329,-0.68611 -0.34625,-5.74656 -1.37396,-11.40655 -0.53319,-2.93653 -0.8539,-5.44797 -0.7127,-5.58099 0.14122,-0.13302 3.12746,-1.85636 6.63614,-3.82963 7.20461,-4.05189 8.31183,-4.79491 7.84741,-5.2661 -0.17389,-0.17642 -3.17445,-0.88837 -6.66792,-1.58212 -7.59053,-1.50737 -9.35864,-2.24327 -10.24937,-4.26587 -0.32095,-0.72884 -1.01705,-3.68606 -1.54686,-6.57159 -1.1168,-6.08252 -1.59034,-7.71577 -2.23699,-7.71577 -0.28444,0 -1.76463,2.5084 -3.8161,6.46693 -1.84326,3.5568 -3.83871,7.01149 -4.43428,7.67707 l -1.08285,1.21015 -2.5643,-0.46214 c -4.70993,-0.84882 -14.09525,-2.13165 -14.27565,-1.95127 -0.098,0.098 1.65711,2.06352 3.9002,4.36785 2.24309,2.30433 5.12332,5.27139 6.40054,6.59347 l 2.3222,2.40379 -2.06946,4.12982 c -2.45761,4.90437 -4.83111,10.13244 -5.11672,11.27042 -0.15738,0.62698 -0.0856,0.81624 0.30938,0.81624 0.67413,0 5.60217,-2.4864 10.91895,-5.50907 l 4.25125,-2.4169 3.02023,2.97417 c 4.70395,4.63221 9.59604,9.06177 10.00802,9.06177 0.20575,0 0.44555,-0.18616 0.53284,-0.41368 z m 8.76115,-67.97034 c 0,-0.74797 -0.35507,-3.34437 -0.78902,-5.76975 -0.43398,-2.4254 -0.78965,-4.76726 -0.79038,-5.20415 0,-0.71487 0.58381,-1.08642 5.84744,-3.71368 3.21684,-1.60563 5.8488,-3.04667 5.8488,-3.20231 0,-0.38837 -0.58065,-0.50531 -7.27148,-1.46438 -3.21684,-0.4611 -5.90814,-0.89734 -5.98067,-0.96943 -0.0725,-0.0721 -0.66989,-3.06392 -1.32745,-6.64852 -0.6576,-3.58461 -1.26148,-6.58334 -1.34197,-6.66385 -0.15652,-0.15652 -0.84573,1.00275 -3.1378,5.27782 -3.18668,5.94377 -3.97503,6.50765 -8.12964,5.81478 -5.79186,-0.96591 -8.53608,-1.28492 -8.53608,-0.99228 0,0.1643 2.13402,2.48491 4.74227,5.15691 2.60825,2.672 4.74227,4.98375 4.74227,5.13722 0,0.15346 -0.93698,2.24154 -2.08221,4.64017 -2.19067,4.58836 -2.7692,6.48375 -1.97898,6.48375 0.24619,0 2.71893,-1.11822 5.49496,-2.48494 l 5.04733,-2.48495 4.33272,4.22378 c 2.38299,2.32308 4.55258,4.22377 4.82131,4.22377 0.36496,0 0.48858,-0.3441 0.48858,-1.35996 z m -85.55643,-64.43399 c 3.69303,-1.25918 8.44288,-3.68842 10.9976,-5.62454 3.0428,-2.30601 7.27335,-6.94387 9.77426,-10.7153 1.31838,-1.98814 4.36924,-7.69058 7.39282,-13.8181 11.72409,-23.759811 16.0196,-32.735622 15.91821,-33.262149 -0.11663,-0.605673 -7.35497,-3.688663 -11.45264,-4.87797 -2.82364,-0.819543 -11.3135,-1.179057 -14.54678,-0.616008 -4.97363,0.866118 -15.29325,4.355593 -17.11203,5.786256 -0.7815,0.614712 -0.83904,0.809025 -0.68418,2.309485 0.18668,1.808745 1.84562,5.400827 3.61376,7.824827 0.60502,0.829442 2.52011,3.176865 4.25578,5.216495 7.3838,8.677044 9.85908,14.181794 9.09895,20.235354 -0.76056,6.0571 -2.6912,8.57919 -16.99515,22.20158 -3.93835,3.7507 -4.81299,4.74228 -4.81039,5.45361 0.004,1.17092 0.84409,1.14997 4.54979,-0.11354 z M 303.39046,92.580512 c 0.25793,-0.39364 0.69485,-2.136423 0.97094,-3.872852 0.52585,-3.30721 1.01834,-5.109187 2.66821,-9.762891 0.54831,-1.546568 0.95415,-3.099781 0.90187,-3.451588 -0.0779,-0.524109 -0.609,-0.765484 -2.94041,-1.336304 -1.56495,-0.383163 -4.26804,-1.306935 -6.00687,-2.052827 -3.97781,-1.706322 -5.9991,-1.954984 -7.23688,-0.890288 -0.70993,0.610652 -0.95124,1.211469 -1.30516,3.249554 -0.28726,1.654198 -0.92144,3.508191 -1.87392,5.478331 -2.39766,4.959394 -1.9643,5.909435 3.36983,7.387597 3.21259,0.890256 4.59739,1.700998 6.75877,3.956989 1.67429,1.74758 2.07577,2.009992 3.07518,2.009992 0.84528,0 1.2736,-0.189416 1.61844,-0.715713 z m -39.86891,-9.594784 c 4.29258,-12.229456 4.1502,-12.005886 7.91476,-12.428065 2.56096,-0.287198 3.36232,-0.677234 3.36232,-1.636503 0,-1.510055 2.50928,-1.853038 16.52894,-2.259264 l 2.77637,-0.08045 -5.7798,-4.085293 c -3.1789,-2.246909 -7.59877,-5.436871 -9.82194,-7.088799 l -4.04214,-3.003512 0.19607,-1.447281 c 0.10785,-0.796002 0.76672,-3.652434 1.46416,-6.347623 3.64792,-14.096975 3.8674,-15.175258 3.08876,-15.175258 -0.66857,0 -2.45655,1.099958 -6.93963,4.269236 -6.40711,4.529448 -6.86568,4.745658 -9.95876,4.69545 -4.79563,-0.07785 -10.86597,-2.458035 -17.54012,-6.877493 -1.99621,-1.321839 -3.75875,-2.403344 -3.91676,-2.403344 -0.75433,0 0.22472,4.221542 2.61171,11.261445 2.8852,8.509279 3.07556,9.781544 1.79139,11.97282 -0.90678,1.547301 -2.36783,2.816524 -9.18677,7.980636 -6.72572,5.093509 -7.68172,5.940664 -7.22961,6.406482 0.24822,0.255753 3.88404,0.464992 11.85567,0.682289 6.32371,0.172375 11.59116,0.409618 11.70545,0.527207 0.1143,0.117586 1.51874,4.268433 3.12099,9.224103 3.94775,12.210199 4.7591,14.417832 5.08487,13.835719 0.1448,-0.258754 1.45614,-3.868881 2.91407,-8.022504 z"
     id="path29"
     inkscape:connector-curvature="0"
     transform="scale(0.74999999)" />
  <path
     style="fill:#ffffff;fill-opacity:1;stroke-width:0.3161512"
     d="m 456.26942,133.43195 c -16.81545,-1.7392 -29.81133,-4.50398 -44.37959,-9.44144 -33.87992,-11.48255 -63.15296,-31.537081 -84.02916,-57.567137 -3.06286,-3.819009 -5.95551,-8.144194 -5.95551,-8.90487 0,-0.541166 0.0821,-0.553733 1.02749,-0.157307 0.56512,0.236961 3.87285,2.185844 7.35052,4.330851 6.83731,4.217219 15.98618,9.045484 20.57115,10.856309 3.82627,1.511181 10.02248,3.185157 14.23471,3.845676 4.62411,0.725109 11.20397,0.521947 14.98795,-0.462766 6.59609,-1.716518 10.86469,-5.079039 13.6753,-10.772498 3.44181,-6.972076 4.62531,-16.822137 2.75052,-22.891996 -1.52298,-4.93085 -8.93432,-12.352634 -14.36383,-14.384073 -6.42042,-2.402184 -17.52221,-1.304494 -20.89244,2.065743 -0.59789,0.59789 -1.08708,1.366457 -1.08708,1.707926 0,0.868652 1.99577,2.982261 4.25666,4.507996 2.31651,1.563273 5.9135,4.960959 7.15939,6.762708 1.47941,2.139449 1.28965,2.849209 -1.44442,5.402531 -2.72218,2.542213 -6.1146,4.440021 -9.83144,5.499962 -2.19462,0.62585 -3.2489,0.717221 -8.36012,0.724565 -5.41274,0.0078 -6.10807,-0.05851 -9.32646,-0.889124 -6.51527,-1.681485 -12.33093,-4.173146 -16.83632,-7.213347 -7.06637,-4.768341 -15.31581,-13.346366 -20.62267,-21.444094 -4.22823,-6.451869 -7.80919,-15.2116021 -7.11394,-17.4021356 0.24988,-0.7873037 0.65311,-0.7780335 2.21335,0.050884 1.75086,0.9301879 3.73976,2.6617876 11.21439,9.7636226 10.5045,9.980575 14.52074,13.27654 18.48101,15.166603 2.29213,1.093935 3.64281,1.210388 4.39525,0.37895 1.58154,-1.747577 -0.38319,-4.73611 -6.58763,-10.020401 -6.84716,-5.831701 -11.10817,-10.757762 -10.85418,-12.548286 0.19697,-1.3886043 6.24651,-3.5201495 13.697,-4.8261162 8.35074,-1.4637686 23.89872,-1.3320751 33.35395,0.2825122 17.89519,3.0558079 38.48507,11.79535 81.09278,34.420496 11.98182,6.362474 29.71555,15.215513 37.46392,18.702753 13.19952,5.940595 18.16696,8.809591 22.08936,12.757962 4.06243,4.089331 5.49114,7.698525 5.46915,13.816111 -0.0141,3.929949 -0.49278,6.119388 -1.9876,9.091529 -2.63532,5.239817 -6.29692,7.506411 -12.12635,7.506411 -3.50163,0 -5.62301,-0.70208 -7.35865,-2.435359 -1.98767,-1.984965 -1.864,-2.473121 1.29496,-5.111615 1.46373,-1.222559 2.81864,-2.638512 3.04294,-3.180013 0.51818,-1.250991 0.29802,-5.910772 -0.32594,-6.898536 -0.74268,-1.175712 -2.20609,-1.659702 -5.01835,-1.659702 -3.02303,0 -4.41055,0.486228 -6.1338,2.149458 -1.82527,1.761696 -2.50546,3.319689 -2.67288,6.122335 -0.2674,4.476037 1.79338,9.093832 5.70548,12.784862 5.81057,5.48224 13.502,6.37382 21.57494,2.50093 4.53727,-2.1767 7.1599,-4.94266 9.89646,-10.43731 2.51908,-5.057961 2.79122,-7.585868 1.4726,-13.678908 -1.30891,-6.048181 -1.1142,-7.188285 1.36755,-8.007335 1.89208,-0.624443 7.65737,-0.186896 10.81666,0.820912 3.1354,1.000188 13.00778,4.824439 13.36314,5.17646 0.13358,0.132322 -0.77867,1.582432 -2.02722,3.22246 -1.24855,1.640031 -5.19145,7.392184 -8.762,12.782562 -3.57055,5.390379 -7.79405,11.512699 -9.38555,13.605159 -4.59989,6.04783 -4.63229,6.28202 -0.8453,6.1086 3.7241,-0.17054 6.01,-1.41432 10.03791,-5.46175 2.44867,-2.46054 4.17772,-4.66361 7.58763,-9.66782 8.68721,-12.748917 12.31278,-15.156013 22.8487,-15.169766 6.43445,-0.0084 10.4954,1.155865 10.4954,3.009001 0,2.384842 -4.21999,7.315878 -11.38159,13.299315 -20.16659,16.84897 -44.03341,26.92145 -73.03078,30.82108 -4.49135,0.604 -6.9085,0.71298 -17.38831,0.78396 -6.69451,0.0453 -13.3811,-0.0426 -14.85911,-0.19549 z m 7.4778,-15.08074 c -0.1115,-1.69536 -0.29629,-5.93785 -0.41065,-9.42775 -0.23331,-7.12028 -0.0581,-8.14886 2.25065,-13.215141 0.61335,-1.345919 1.11519,-2.634402 1.11519,-2.863299 0,-0.338664 -1.84004,-0.3864 -9.87973,-0.256304 l -9.87972,0.159872 -2.84536,-1.026079 c -4.18773,-1.510156 -5.1692,-1.762293 -5.5102,-1.415557 -0.29703,0.302032 -0.6009,4.638365 -1.33396,19.036568 -0.30862,6.06183 -0.3091,7.75065 -0.002,8.05749 0.27404,0.27404 2.68584,0.44812 8.2015,0.59196 8.39217,0.21885 10.7448,0.6053 15.87516,2.60773 1.13024,0.44114 2.18259,0.80903 2.33854,0.81753 0.16208,0.009 0.19671,-1.30522 0.0808,-3.06702 z"
     id="path31"
     inkscape:connector-curvature="0"
     transform="scale(0.74999999)" />
  <path
     style="fill:#ffffff;fill-opacity:1;stroke-width:0.3161512"
     d="m 516.63837,62.64155 c -9.85764,-1.515302 -19.8511,-4.408838 -30.17651,-8.737395 -4.18527,-1.754524 -15.33958,-7.470057 -21.49828,-11.01584 -8.71828,-5.019425 -16.59794,-10.371766 -16.59794,-11.274325 0,-0.6005 2.23528,-0.216289 9.43945,1.622504 18.21485,4.649156 29.08597,6.263204 44.04525,6.539451 12.1372,0.224132 25.4878,-0.588797 30.53293,-1.859176 0.75208,-0.189375 1.42228,-0.289458 1.48933,-0.222405 0.067,0.06705 -0.57681,1.685829 -1.43081,3.597282 -2.84773,6.37389 -2.51851,6.757356 8.03309,9.356853 7.39567,1.821999 9.81965,2.569939 12.22066,3.770781 3.2113,1.606109 3.63903,2.948212 1.42268,4.464072 -2.5324,1.73202 -9.73069,3.498009 -16.56791,4.064681 -5.99463,0.496835 -16.70741,0.339831 -20.91194,-0.306483 z"
     id="path33"
     inkscape:connector-curvature="0"
     transform="scale(0.74999999)" />
  <path
     style="fill:#ffffff;fill-opacity:1;stroke-width:0.3161512"
     d="m 573.71959,76.013222 c -0.69553,-0.0575 -4.96357,-0.322582 -9.48454,-0.589069 -12.10205,-0.713357 -22.57665,-1.657257 -25.05498,-2.257786 -2.71133,-0.656989 1.51148,-1.763501 19.75159,-5.175553 24.32811,-4.550892 29.10083,-6.212748 45.53807,-15.856333 16.28946,-9.556885 15.72135,-9.274319 17.60225,-8.754977 3.8124,1.052654 3.77372,4.709838 -0.0755,7.134528 -2.5244,1.590182 -3.22538,2.297637 -3.22538,3.255172 0,2.092585 1.38014,2.073114 11.43244,-0.161292 8.56359,-1.903496 11.71345,-2.199626 13.51077,-1.270196 1.35249,0.699399 2.05252,1.853795 1.78224,2.939024 -0.34099,1.36913 -2.49862,4.00253 -5.09341,6.216529 -9.21393,7.861751 -22.66009,13.378362 -35.12581,14.4112 -3.3641,0.278731 -28.45575,0.365199 -31.55778,0.108753 z"
     id="path35"
     inkscape:connector-curvature="0"
     transform="scale(0.74999999)" />
  <path
     style="fill:#ffffff;fill-opacity:1;stroke-width:0.3161512"
     d="m 650.22818,80.453857 c -4.55184,-0.532847 -11.69295,-1.805333 -13.98969,-2.492842 -1.1846,-0.3546 -1.65979,-0.655997 -1.65979,-1.052739 0,-1.303873 4.57438,-4.639519 8.74144,-6.37427 3.82642,-1.592941 6.24258,-1.975331 11.49223,-1.818799 3.94353,0.117587 4.93767,0.257436 7.11341,1.000669 10.09094,3.447071 11.37186,8.902339 2.5292,10.771641 -2.76225,0.583929 -9.07872,0.568985 -14.2268,-0.03366 z"
     id="path37"
     inkscape:connector-curvature="0"
     transform="scale(0.74999999)" />
  <path
     style="fill:#ffffff;fill-opacity:1;stroke-width:0.3161512"
     d="m 769.89141,155.93054 c -4.75327,-1.57053 -9.48454,-4.17784 -9.48454,-5.22675 0,-0.76221 1.78789,-1.99189 3.4897,-2.40014 1.56129,-0.37455 2.52728,-0.35214 8.62131,0.20001 1.95415,0.17706 2.22331,0.12824 2.9244,-0.5304 0.42468,-0.39897 0.77215,-1.05945 0.77215,-1.46773 0,-1.16468 -2.29695,-3.3845 -6.84547,-6.61559 -7.73063,-5.49152 -10.11634,-8.66463 -10.84574,-14.42533 -0.96341,-7.60889 3.28401,-13.9024 10.76914,-15.95692 1.60399,-0.44026 3.19758,-0.549 7.71245,-0.52625 5.25722,0.0265 5.88339,0.0922 8.21993,0.86288 3.24125,1.06907 5.31653,2.27771 7.70025,4.48461 3.22432,2.98515 5.57158,7.4092 6.3735,12.01257 0.60539,3.47521 0.27745,10.5496 -0.60786,13.1128 -2.04753,5.92819 -7.55781,11.70229 -14.46845,15.16117 -4.88558,2.44531 -9.60055,2.87798 -14.33077,1.31507 z"
     id="path39"
     inkscape:connector-curvature="0"
     transform="scale(0.74999999)" />
  <path
     style="fill:#ffffff;fill-opacity:1;stroke-width:0.3161512"
     d="m 953.77181,483.90584 c -8.46771,-1.76836 -15.70575,-5.87428 -22.84173,-12.9574 -10.396,-10.31898 -15.79802,-20.76079 -20.61344,-39.84466 -9.44137,-37.41684 -12.64538,-82.01268 -12.69714,-176.72852 -0.0128,-23.42585 -0.51638,-53.80268 -0.97099,-58.57171 -0.39702,-4.16501 -0.87587,-6.04142 -1.66487,-6.52401 -1.30009,-0.79519 -2.15009,1.69889 -3.81714,11.20017 -1.70724,9.7304 -3.72431,25.05265 -4.76431,36.19108 -0.91401,9.78916 -1.24335,27.37809 -0.84355,45.05155 0.8249,36.4652 2.98279,64.87385 7.03333,92.5941 0.69566,4.76078 1.22158,9.01828 1.16873,9.46111 -0.0775,0.64962 -0.43913,0.1684 -1.87183,-2.49101 -9.55775,-17.74132 -14.48959,-39.79325 -17.17637,-76.80131 -0.72125,-9.93462 -1.0501,-17.22222 -2.07572,-46 -1.7196,-48.25051 -2.91592,-65.49101 -5.71442,-82.35213 -2.7152,-16.35922 -6.52972,-28.24109 -13.60219,-42.36952 -6.28318,-12.55168 -12.00883,-20.54983 -14.71107,-20.54983 -1.52433,0 -1.83891,2.65417 -0.61827,5.2165 0.41418,0.86941 1.77862,3.00343 3.0321,4.74226 2.62121,3.63617 3.34524,4.94632 3.76438,6.81179 0.83762,3.72798 -1.24459,3.73829 -9.6864,0.048 -6.23794,-2.7269 -15.05421,-7.77118 -31.06517,-17.77411 -15.32045,-9.57153 -16.09188,-9.96676 -20.99881,-10.75833 -3.59101,-0.57929 -10.03057,-0.23042 -13.80247,0.74777 -5.3881,1.39734 -9.05292,3.68891 -14.09454,8.81322 -3.48586,3.54302 -5.33575,6.13607 -5.9948,8.40312 -0.56256,1.93515 -0.92757,1.97591 -1.92095,0.21448 -1.63988,-2.90779 -1.75809,-9.6692 -0.25894,-14.81118 3.43153,-11.769962 12.17616,-20.656514 24.29464,-24.688962 5.31104,-1.767257 8.08802,-2.146856 14.43752,-1.973536 6.3471,0.173255 7.83906,0.507201 14.07031,3.149373 3.07219,1.302667 4.12456,1.605128 5.53264,1.590124 0.95636,-0.01019 4.93987,-0.736176 8.85224,-1.6133 8.09525,-1.814893 20.71322,-4.193498 26.5567,-5.006184 4.76209,-0.662291 18.98397,-0.740618 25.45017,-0.140168 21.97376,2.040479 37.94477,7.794236 53.1134,19.134762 4.93737,3.691325 14.44919,13.201811 18.37121,18.368631 16.75069,22.06712 26.36685,48.2003 31.23551,84.88659 1.83315,13.81319 2.39003,23.47889 2.39521,41.57389 0.008,26.20958 -1.4871,44.77932 -5.38799,66.94253 -4.0152,22.81267 -13.67864,59.56551 -18.01701,68.52384 -1.88953,3.9017 -2.00233,3.41455 -1.78468,-7.70797 0.2545,-13.00606 1.23959,-22.38891 5.31422,-50.61751 4.64983,-32.21358 5.19409,-36.52813 6.02197,-47.73883 0.51746,-7.00712 0.5201,-29.51857 0.004,-35.72509 -1.06116,-12.76604 -2.64116,-21.05823 -3.93056,-20.62843 -0.7801,0.26004 -1.39992,4.3932 -2.92755,19.5219 -1.99151,19.72276 -3.76827,31.32865 -10.1221,66.11813 -8.34302,45.68093 -10.35245,60.61152 -11.23029,83.44367 -0.87283,22.7022 1.43021,41.93914 7.15164,59.73653 2.52278,7.84747 4.26177,11.90192 12.09137,28.1911 l 2.53616,5.27635 1.3265,0.35718 c 5.34266,1.43865 11.62377,2.37509 18.99043,2.8313 6.68343,0.4139 8.50473,0.62294 8.50473,0.97615 0,0.70922 -5.17791,2.60347 -10.43299,3.81676 -3.63184,0.8385 -12.50482,1.08848 -15.61101,0.43977 z M 919.43093,128.36286 c 1.76744,-0.40604 6.73812,-2.73803 8.67146,-4.0682 0.9606,-0.66091 1.44538,-1.22265 1.44538,-1.67483 0,-1.46642 -10.74492,-10.82834 -18.49485,-16.11434 -10.12006,-6.902597 -26.05603,-14.508955 -35.97605,-17.171638 -8.81145,-2.365125 -24.98334,-4.183958 -34.64254,-3.896203 -3.25145,0.09686 -3.9154,0.207303 -4.68133,0.778679 -1.93144,1.440834 -1.32025,2.348475 2.2028,3.271226 11.4929,3.010199 14.97203,4.426674 23.60895,9.612012 2.34165,1.405854 7.10763,4.556944 10.59107,7.002424 3.48344,2.44548 8.68095,6.09519 11.55002,8.11045 11.73325,8.24158 19.24058,12.35498 25.2921,13.85801 2.67853,0.66528 8.14327,0.81844 10.43299,0.29241 z"
     id="path41"
     inkscape:connector-curvature="0"
     transform="scale(0.74999999)" />
</svg>
